<?xml version="1.0" encoding="UTF-8"?>
<!-- Generator: visioncortex VTracer 0.6.12 -->
<svg version="1.1" xmlns="http://www.w3.org/2000/svg" width="1500" height="418">
<path d="M0 0 C495 0 990 0 1500 0 C1500 137.94 1500 275.88 1500 418 C1005 418 510 418 0 418 C0 280.06 0 142.12 0 0 Z M205.34 50.191 C204.766 50.528 204.192 50.865 203.601 51.213 C201.711 52.325 199.824 53.443 197.938 54.562 C196.636 55.331 195.334 56.099 194.032 56.867 C190.68 58.847 187.332 60.833 183.985 62.822 C182.051 63.97 180.117 65.116 178.182 66.261 C174.68 68.335 171.183 70.416 167.688 72.5 C166.609 73.14 165.531 73.78 164.42 74.44 C163.439 75.027 162.459 75.614 161.449 76.219 C160.586 76.734 159.724 77.249 158.835 77.779 C158.229 78.182 157.624 78.585 157 79 C157 79.33 157 79.66 157 80 C157.938 80.21 158.877 80.42 159.844 80.637 C165.166 82.166 169.743 85.042 174.5 87.812 C175.493 88.381 176.486 88.95 177.509 89.536 C180.677 91.351 183.839 93.174 187 95 C191.203 97.425 195.413 99.84 199.625 102.25 C200.59 102.811 201.555 103.371 202.549 103.948 C203.453 104.466 204.357 104.983 205.289 105.516 C206.08 105.972 206.871 106.429 207.686 106.899 C210.208 108.099 212.215 108.755 215 109 C217.115 108.234 217.115 108.234 219.238 106.965 C220.047 106.492 220.856 106.018 221.689 105.531 C222.555 105.005 223.421 104.479 224.312 103.938 C225.218 103.404 226.124 102.87 227.057 102.321 C229.01 101.169 230.959 100.011 232.905 98.848 C237.191 96.289 241.496 93.764 245.805 91.244 C247.903 90.017 249.999 88.784 252.091 87.547 C252.571 87.264 252.571 87.264 255 85.836 C255.846 85.336 256.691 84.837 257.562 84.322 C263.688 81 263.688 81 267 81 C265.659 76.977 263.167 76.141 259.625 74.25 C258.339 73.541 257.053 72.83 255.77 72.117 C255.13 71.762 254.49 71.408 253.831 71.042 C251.262 69.58 248.789 67.987 246.312 66.375 C242.036 63.613 237.675 61.146 233.184 58.754 C228.269 56.046 223.465 53.151 218.662 50.251 C217.957 49.83 217.253 49.41 216.527 48.977 C215.896 48.596 215.264 48.215 214.613 47.823 C210.934 45.946 208.605 48.265 205.34 50.191 Z M1011.895 52.621 C1011.083 52.751 1010.272 52.882 1009.436 53.016 C1008.57 53.155 1007.704 53.294 1006.812 53.438 C998.922 54.68 991.168 55.422 983.188 55.691 C980 56 980 56 978.158 56.957 C975.527 58.229 973.172 58.583 970.281 59 C969.184 59.165 968.087 59.33 966.957 59.5 C964.652 59.833 962.348 60.167 960.043 60.5 C958.946 60.665 957.849 60.83 956.719 61 C956.218 61.072 956.218 61.072 953.686 61.438 C951.141 61.97 949.246 62.718 947 64 C947 64.99 947 65.98 947 67 C953.47 70.235 964.813 66.835 971.695 65.402 C974 65 974 65 978 65 C978.133 76.002 977.756 86.941 977.26 97.929 C976.482 115.301 975.902 132.671 975.492 150.055 C975.482 150.491 975.482 150.491 975.429 152.697 C975.221 161.47 975.021 170.242 974.839 179.015 C974.417 199.067 973.637 219.005 972 239 C970.744 238.895 969.488 238.789 968.194 238.68 C967.82 238.649 967.82 238.649 965.925 238.492 C964.37 238.36 962.815 238.218 961.261 238.072 C956.588 237.74 953.855 237.995 950 241 C952.359 243.788 954.131 244.511 957.691 245.176 C958.628 245.361 959.564 245.546 960.529 245.737 C961.03 245.832 961.03 245.832 963.562 246.312 C971.195 247.861 978.623 249.614 986 252.125 C986.355 252.246 986.355 252.246 988.151 252.857 C991.428 254.005 994.62 255.254 997.793 256.664 C1001.171 258.071 1003.382 258.337 1007 258 C1007.66 257.67 1008.32 257.34 1009 257 C1007.998 254.351 1007.306 253.187 1004.855 251.691 C1003.975 251.319 1003.095 250.946 1002.188 250.562 C1001.213 250.147 1000.238 249.732 999.234 249.305 C983.605 243 983.605 243 981 243 C981.075 241.742 981.15 240.485 981.228 239.189 C983.019 208.95 984.464 178.706 985.625 148.438 C985.641 148.02 985.641 148.02 985.722 145.908 C986.764 118.611 987.596 91.315 988 64 C991.329 62.557 994.31 61.667 997.906 61.219 C998.815 61.099 999.724 60.979 1000.66 60.855 C1002.553 60.618 1004.447 60.382 1006.34 60.145 C1015.52 58.934 1015.52 58.934 1019 57 C1019.66 56.01 1020.32 55.02 1021 54 C1020.67 53.67 1020.67 53.67 1019 52 C1016.484 52 1014.359 52.213 1011.895 52.621 Z M418 89 C417.16 89.758 416.319 90.516 415.453 91.297 C396.369 109.432 383.496 135.677 382.688 162.125 C382.843 170.026 384.595 177.995 390 184 C393.75 185.375 393.75 185.375 397 186 C397.33 185.67 397.33 185.67 399 184 C398.875 182.125 398.875 182.125 398 180 C397.381 179.464 396.762 178.928 396.125 178.375 C390.99 172.635 390.487 164.598 390.723 157.184 C392.927 131.877 406.748 108.174 425.812 91.75 C449.939 72.53 477.167 63.81 508 66 C520.088 67.672 531.456 74.486 539 84 C553.687 106.058 555.078 130.534 550.812 156.125 C547.7 171 542.348 184.725 535 198 C534.64 198.651 534.28 199.303 533.909 199.974 C529.028 208.687 523.582 216.453 517 224 C516.397 224.724 515.793 225.449 515.172 226.195 C511.283 230.859 511.283 230.859 509 232 C509 232.66 509 233.32 509 234 C508.293 234.17 507.587 234.34 506.858 234.516 C498.92 236.46 491.082 238.667 483.25 241 C482.083 241.343 480.917 241.686 479.715 242.039 C479.146 242.208 479.146 242.208 476.266 243.062 C475.759 243.213 475.759 243.213 473.196 243.973 C469.409 245.19 465.716 246.58 462 248 C462.061 246.828 462.121 245.655 462.184 244.447 C463.306 222.359 464.212 200.275 464.3 178.156 C464.308 176.118 464.322 174.081 464.341 172.043 C464.593 141.871 464.593 141.871 459 133 C457 132.125 457 132.125 455 132 C453 134 453 134 452.75 137.125 C453 141 453 141 454 144.715 C455.108 149.01 455.277 153.023 455.243 157.441 C455.245 158.244 455.247 159.047 455.249 159.874 C455.252 162.509 455.242 165.143 455.23 167.777 C455.229 169.631 455.229 171.484 455.229 173.338 C455.228 177.221 455.219 181.103 455.206 184.986 C455.189 189.914 455.185 194.842 455.186 199.77 C455.185 203.601 455.18 207.432 455.173 211.263 C455.17 213.077 455.168 214.891 455.167 216.705 C455.163 221.68 455.125 226.653 455.036 231.627 C455.012 233.231 454.999 234.835 454.996 236.439 C454.988 238.782 454.941 241.121 454.884 243.463 C454.887 243.811 454.887 243.811 454.902 245.572 C454.8 248.334 454.571 250.408 452.609 252.442 C449.885 254.447 446.992 256.074 443.848 257.312 C434.402 261.311 423.766 268.352 418 277 C417.688 280.062 417.688 280.062 418 283 C422.759 286.172 427.43 285.626 433 285 C436.986 284.01 440.802 282.613 444.652 281.191 C449.572 279.44 452.906 278.69 458 280 C458.324 279.108 458.647 278.216 458.98 277.297 C461.685 272.881 464.774 271.511 469.312 269.25 C483.28 261.876 495.192 252.426 507.325 242.374 C508.788 241.174 510.275 240.004 511.766 238.84 C513.82 237.148 515.48 235.47 517.188 233.438 C520.043 230.084 522.996 226.847 526 223.625 C551.928 195.073 563.19 157.306 562.184 119.356 C561.81 112.519 560.305 106.446 558 100 C557.638 98.931 557.276 97.863 556.902 96.762 C551.557 82.501 541.617 71.295 528.098 64.316 C491.41 48.725 446.445 63.348 418 89 Z M714.457 59.398 C713.632 59.549 712.806 59.699 711.956 59.854 C709.24 60.353 706.526 60.863 703.812 61.375 C702.877 61.55 701.942 61.725 700.978 61.905 C686.045 64.708 671.193 67.828 656.375 71.188 C655.471 71.391 654.567 71.595 653.635 71.805 C644.495 73.872 635.385 76.057 626.352 78.551 C625.636 78.737 624.92 78.924 624.182 79.116 C619.335 80.506 619.335 80.506 617.541 83.153 C617.362 83.763 617.184 84.372 617 85 C621.787 86.501 625.81 85.351 630.512 84.129 C631.321 83.928 632.131 83.727 632.965 83.519 C635.541 82.877 638.114 82.22 640.688 81.562 C643.272 80.911 645.857 80.263 648.443 79.616 C650.049 79.214 651.655 78.808 653.26 78.398 C658.782 77 658.782 77 661 77 C660.403 82.216 659.594 87.274 658.477 92.41 C658.175 93.814 657.875 95.218 657.575 96.622 C657.419 97.346 657.264 98.07 657.104 98.817 C651.847 123.472 649.378 147.856 648 173 C646.728 173.116 645.455 173.232 644.145 173.352 C638.875 173.94 633.824 175.082 628.688 176.375 C628.248 176.479 628.248 176.479 626.021 177.008 C625.173 177.219 624.324 177.431 623.449 177.648 C622.69 177.836 621.93 178.023 621.147 178.216 C618.671 179.12 616.961 180.246 615 182 C615 182.66 615 183.32 615 184 C619.055 185.094 621.804 184.822 625.852 183.785 C626.401 183.648 626.401 183.648 629.18 182.955 C630.317 182.661 631.454 182.366 632.625 182.062 C634.887 181.488 637.15 180.916 639.414 180.348 C640.414 180.09 641.414 179.832 642.444 179.567 C645 179 645 179 648 179 C648.015 179.546 648.029 180.092 648.044 180.655 C648.87 208.749 649.997 240.408 670.617 261.902 C677.052 267.567 684.409 270.42 693 270 C703.427 268.565 711.246 264.721 717.875 256.5 C724 248.059 724 248.059 724 243 C721.312 242.938 721.312 242.938 718 244 C716.477 246.119 715.372 248.318 714.199 250.648 C711.221 256.489 707.515 259.891 701.391 262.305 C694.656 264.263 689.402 263.188 683.141 260.266 C670.436 252.754 665.501 237.579 662 224 C660.711 218.373 659.8 212.714 659 207 C658.869 206.148 658.737 205.296 658.602 204.418 C658.064 200.271 657.959 196.127 657.945 191.949 C657.942 191.036 657.939 190.122 657.936 189.181 C657.938 185.12 657.962 181.06 658 177 C662.681 174.86 667.494 173.95 672.508 172.941 C673.429 172.752 674.35 172.562 675.3 172.366 C678.24 171.761 681.183 171.161 684.125 170.562 C708.291 165.638 708.291 165.638 717 163 C717.165 162.34 717.165 162.34 718 159 C710.923 158.67 704.528 159.921 697.625 161.406 C696.46 161.65 695.295 161.895 694.094 162.146 C690.395 162.923 686.697 163.711 683 164.5 C680.483 165.031 677.966 165.561 675.449 166.09 C669.298 167.385 663.148 168.689 657 170 C659.146 141.389 663.059 113.423 668.476 85.235 C668.676 84.192 668.876 83.149 669.082 82.074 C669.26 81.162 669.437 80.251 669.62 79.311 C670 77 670 77 670 74 C670.689 73.89 671.379 73.779 672.089 73.666 C681.198 72.181 690.252 70.439 699.307 68.658 C701.36 68.254 703.412 67.851 705.465 67.449 C706.125 67.32 706.784 67.191 707.464 67.058 C711.136 66.344 714.811 65.679 718.504 65.082 C719.254 64.958 720.005 64.833 720.778 64.705 C722.648 64.402 724.521 64.118 726.395 63.836 C729 63 729 63 730.387 60.914 C730.589 60.282 730.791 59.651 731 59 C730 58 730 58 726.971 57.85 C722.679 58.012 718.67 58.609 714.457 59.398 Z M1228.172 59.906 C1227.122 60.107 1226.072 60.307 1224.99 60.513 C1221.575 61.168 1218.162 61.833 1214.75 62.5 C1213.587 62.726 1212.424 62.951 1211.226 63.183 C1196.545 66.034 1181.893 68.986 1167.312 72.312 C1166.639 72.465 1165.966 72.617 1165.273 72.774 C1160.831 73.785 1156.412 74.868 1152 76 C1151.244 76.192 1150.488 76.384 1149.709 76.582 C1147.335 77.194 1144.97 77.833 1142.605 78.48 C1141.862 78.671 1141.119 78.862 1140.353 79.058 C1138.278 79.645 1138.278 79.645 1135 81 C1134.025 83.157 1134.025 83.157 1134 85 C1137.776 86.373 1140.511 85.626 1144.348 84.672 C1145.594 84.366 1146.839 84.061 1148.123 83.746 C1149.436 83.414 1150.749 83.082 1152.062 82.75 C1153.335 82.437 1154.608 82.124 1155.92 81.801 C1163.309 79.971 1170.667 78.044 1178 76 C1177.937 76.305 1177.937 76.305 1177.62 77.851 C1171.205 109.239 1166.182 140.035 1164 172 C1163.173 172.202 1162.345 172.403 1161.493 172.611 C1158.413 173.364 1155.335 174.121 1152.257 174.881 C1150.927 175.208 1149.596 175.534 1148.265 175.858 C1146.347 176.326 1144.431 176.799 1142.516 177.273 C1141.94 177.415 1141.94 177.415 1139.024 178.13 C1136.456 178.869 1134.321 179.7 1132 181 C1132 181.99 1132 182.98 1132 184 C1135.614 185.269 1138.086 184.72 1141.754 183.785 C1142.305 183.648 1142.305 183.648 1145.092 182.955 C1146.237 182.661 1147.382 182.366 1148.562 182.062 C1150.834 181.488 1153.106 180.916 1155.379 180.348 C1156.385 180.09 1157.391 179.832 1158.428 179.567 C1161 179 1161 179 1164 179 C1164.04 179.763 1164.079 180.527 1164.12 181.313 C1167.382 241.425 1167.382 241.425 1187 262 C1193.88 267.825 1201.546 270.435 1210.605 269.824 C1220.575 268.432 1228.197 263.887 1234.527 256.09 C1237.407 252.003 1240 248.082 1240 243 C1237.738 243.145 1237.738 243.145 1235 244 C1233.043 246.512 1233.043 246.512 1231.188 249.688 C1227.23 255.983 1223.17 260.61 1216 263 C1207.785 263.905 1201.456 262.401 1194.871 257.375 C1179.39 243.274 1175.587 216.806 1174.598 196.859 C1174.323 190.241 1174.133 183.622 1174 177 C1186.07 173.804 1198.255 171.158 1210.463 168.551 C1218.044 166.922 1225.549 165.151 1233 163 C1233.165 162.34 1233.165 162.34 1234 159 C1227.739 158.696 1222.093 159.851 1215.992 161.188 C1214.949 161.409 1213.905 161.631 1212.83 161.86 C1209.51 162.567 1206.192 163.283 1202.875 164 C1199.55 164.717 1196.225 165.431 1192.899 166.14 C1190.833 166.58 1188.769 167.025 1186.705 167.475 C1186.236 167.575 1186.236 167.575 1183.863 168.082 C1183.042 168.26 1182.222 168.437 1181.376 168.62 C1178.879 169.019 1176.524 169.066 1174 169 C1174.068 137.383 1180.641 105.863 1187 75 C1195.834 72.625 1204.673 70.61 1213.68 69 C1214.136 68.918 1214.136 68.918 1216.448 68.501 C1220.224 67.823 1224.002 67.15 1227.784 66.5 C1230.585 66.016 1233.382 65.51 1236.18 65 C1237.038 64.858 1237.896 64.716 1238.78 64.57 C1241.171 64.125 1241.171 64.125 1245 63 C1246.239 60.93 1246.239 60.93 1247 59 C1246 58 1246 58 1243.114 57.818 C1238.038 57.898 1233.14 58.936 1228.172 59.906 Z M1353.375 77.688 C1348.331 84.276 1346.216 91.16 1344.812 99.25 C1344.648 100.115 1344.484 100.98 1344.314 101.871 C1342.194 113.497 1341.79 125.21 1341.438 137 C1341.416 137.686 1341.394 138.372 1341.372 139.079 C1341.024 150.29 1340.915 161.485 1341.037 172.701 C1341.187 191.57 1341.187 191.57 1337.926 195.5 C1337.063 195.995 1336.201 196.49 1335.312 197 C1334.4 197.539 1333.487 198.078 1332.547 198.633 C1331.706 199.084 1330.866 199.535 1330 200 C1329.031 200.619 1328.061 201.238 1327.062 201.875 C1322.059 203.713 1315.85 205.104 1310.742 203.125 C1308.485 201.667 1307.869 200.533 1307 198 C1306.875 195.25 1306.875 195.25 1307 193 C1307.568 193.035 1308.137 193.07 1308.723 193.105 C1314.201 193.298 1318.116 192.777 1323 190 C1325.438 187.312 1325.438 187.312 1327 185 C1326.084 181.612 1325.305 180.223 1322.438 178.125 C1317.956 176.658 1314.537 176.803 1310 178 C1304.777 180.76 1301.584 184.21 1298.688 189.312 C1297.332 194.613 1298.263 198.652 1300.812 203.312 C1303.782 206.961 1306.265 209.324 1311 210 C1321.125 210.794 1329.571 206.173 1338 201 C1338.66 200.34 1339.32 199.68 1340 199 C1340.049 199.904 1340.098 200.807 1340.148 201.738 C1340.223 202.918 1340.298 204.097 1340.375 205.312 C1340.41 205.898 1340.41 205.898 1340.586 208.863 C1341 212 1341 212 1343 215 C1345.25 215 1345.25 215 1348 214 C1351.467 207.695 1354.228 201.044 1357.088 194.447 C1360.841 185.887 1360.841 185.887 1363 183 C1365.188 182.188 1365.188 182.188 1367 182 C1366.983 182.32 1366.983 182.32 1366.895 183.941 C1366.673 191.024 1367.297 195.79 1372 201.375 C1376.599 205.112 1382.385 204.503 1388 204 C1395.982 202.231 1404.078 200.286 1408.875 193.25 C1409.246 192.507 1409.618 191.765 1410 191 C1406.123 191.619 1402.973 192.809 1399.438 194.5 C1394.403 196.902 1390.526 198.145 1384.938 198.188 C1384.08 198.202 1383.223 198.216 1382.34 198.23 C1380 198 1380 198 1377 196 C1376.371 193.159 1375.884 190.436 1375.5 187.562 C1375.293 186.021 1375.074 184.48 1374.844 182.941 C1374.753 182.258 1374.662 181.574 1374.568 180.869 C1373.861 178.544 1372.871 177.52 1371 176 C1369.062 175.672 1369.062 175.672 1367 175.75 C1366.319 175.765 1365.639 175.781 1364.938 175.797 C1363 176 1363 176 1360 177 C1360.176 176.779 1360.176 176.779 1361.066 175.662 C1377.266 155.216 1388.964 135.532 1389.312 108.938 C1389.321 108.476 1389.321 108.476 1389.367 106.142 C1389.353 94.898 1386.168 85.233 1378.16 77.141 C1373.605 73.096 1370.357 71.674 1364.055 71.789 C1359.352 72.272 1356.602 74.384 1353.375 77.688 Z M743.785 96.496 C733.123 111.451 732.229 130.726 735.062 148.312 C737.166 159.994 741.507 171.5 747 182 C746.196 181.649 745.391 181.299 744.562 180.938 C738.809 179.423 734.138 180.013 728.75 182.5 C724.081 186.744 721.115 191.94 720 198.188 C720 203.168 721.362 206.02 724.5 209.812 C728.008 212.589 731.738 212.338 736 212 C742.985 210.025 748.631 206.447 754.457 202.195 C757 201 757 201 759.609 201.617 C761.858 202.918 763.569 204.208 765.438 206 C768.441 208.682 770.985 210.16 775 211 C775.66 210.67 776.32 210.34 777 210 C775.127 205.415 771.745 203.071 767.996 200 C766 198 766 198 764.98 196.023 C765.011 192.877 766.676 191.794 768.875 189.625 C785.705 171.75 794.323 148.459 794 124 C793.208 111.929 790.584 99.971 782 91 C775.676 85.604 770.512 84.568 762.355 84.668 C754.191 85.476 748.869 90.361 743.785 96.496 Z M1262.258 93.5 C1251.299 105.634 1249.06 121.15 1249.617 136.977 C1250.52 151.721 1255.109 166.939 1262 180 C1261.359 179.965 1260.719 179.93 1260.059 179.895 C1254.31 179.715 1250.073 179.976 1245 183 C1240.978 186.846 1237.389 190.962 1236.664 196.621 C1236.559 204.227 1236.559 204.227 1238.75 208.062 C1241.987 210.85 1243.785 211.851 1248.062 212.375 C1257.019 211.522 1263.855 207.849 1270.809 202.293 C1273 201 1273 201 1275.016 201.082 C1277.485 202.224 1279.257 203.719 1281.312 205.5 C1285.331 208.753 1287.862 209.891 1293 210 C1293 209.01 1293 208.02 1293 207 C1289.667 204 1289.667 204 1287 204 C1286.732 203.361 1286.464 202.721 1286.188 202.062 C1285 200 1285 200 1282 199 C1281.266 196.762 1281.266 196.762 1281 194 C1282.484 191.957 1282.484 191.957 1284.75 189.812 C1300.393 173.413 1309.554 151.09 1310.375 128.5 C1309.914 115.884 1307.895 101.796 1299.266 92.039 C1287.033 80.943 1273.679 82.329 1262.258 93.5 Z M128.06 92.675 C127.112 93.319 126.164 93.962 125.188 94.625 C123.082 95.955 120.975 97.283 118.867 98.609 C117.76 99.324 116.652 100.039 115.511 100.775 C110.012 104.295 104.338 107.521 98.688 110.789 C71.425 126.575 71.425 126.575 69 129 C68.903 130.974 68.878 132.952 68.88 134.929 C68.878 136.217 68.877 137.506 68.876 138.834 C68.879 140.275 68.883 141.717 68.886 143.158 C68.887 144.666 68.887 146.173 68.886 147.681 C68.886 151.786 68.892 155.891 68.899 159.997 C68.905 164.282 68.905 168.568 68.907 172.853 C68.91 180.974 68.918 189.095 68.928 197.216 C68.939 206.458 68.945 215.701 68.95 224.944 C68.96 243.963 68.978 262.981 69 282 C69.546 282.271 70.092 282.543 70.655 282.822 C71.014 283.001 71.014 283.001 72.831 283.906 C73.187 284.083 73.187 284.083 74.986 284.978 C77.416 286.211 79.77 287.543 82.117 288.926 C82.579 289.197 82.579 289.197 84.915 290.567 C85.892 291.143 86.869 291.719 87.875 292.312 C90.014 293.567 92.153 294.821 94.293 296.074 C94.844 296.397 94.844 296.397 97.634 298.033 C103.14 301.251 108.663 304.44 114.188 307.625 C115.279 308.254 116.371 308.884 117.496 309.532 C124.999 313.855 132.514 318.157 140.037 322.446 C145.854 325.766 151.656 329.112 157.453 332.467 C168.379 338.79 179.344 345.035 190.378 351.169 C191.333 351.701 192.289 352.233 193.273 352.781 C193.742 353.04 193.742 353.04 196.112 354.348 C198.152 355.515 200.161 356.737 202.146 357.996 C210.069 362.968 210.069 362.968 214.918 363.133 C218.056 361.979 220.533 360.733 223.312 358.875 C229.95 354.576 236.766 350.622 243.625 346.688 C245.889 345.387 248.154 344.086 250.418 342.785 C251.524 342.15 252.631 341.514 253.771 340.86 C256.786 339.123 259.795 337.375 262.801 335.621 C263.675 335.112 264.548 334.602 265.449 334.077 C267.067 333.133 268.685 332.186 270.301 331.237 C271.015 330.821 271.729 330.405 272.465 329.977 C272.772 329.796 272.772 329.796 274.328 328.885 C276 328 276 328 279 327 C279 306.54 279 286.08 279 265 C269.624 269.688 260.589 274.216 251.688 279.625 C245.373 283.433 239.023 287.107 232.533 290.607 C230.342 291.812 228.203 293.061 226.074 294.371 C225.515 294.712 225.515 294.712 222.688 296.438 C222.12 296.8 221.552 297.163 220.967 297.537 C216.804 300.031 214.64 300.136 210 299 C207.23 297.728 207.23 297.728 204.402 296.121 C203.36 295.533 202.317 294.945 201.243 294.34 C200.152 293.712 199.061 293.084 197.938 292.438 C196.816 291.801 195.694 291.164 194.539 290.508 C187.954 286.752 181.423 282.933 175.039 278.844 C171.462 276.673 167.801 274.691 164.122 272.699 C160.799 270.891 157.496 269.051 154.195 267.203 C153.023 266.548 151.852 265.893 150.68 265.238 C148.888 264.237 147.098 263.235 145.309 262.23 C143.543 261.239 141.776 260.252 140.008 259.266 C138.973 258.686 137.938 258.106 136.872 257.509 C134 256 134 256 129 254 C129 247.07 129 240.14 129 233 C133.968 234.656 137.829 236.521 142.188 239.25 C147.424 242.499 152.743 245.528 158.164 248.46 C162.7 250.923 167.194 253.46 171.688 256 C172.659 256.549 173.631 257.098 174.632 257.663 C183.227 262.533 191.765 267.501 200.282 272.506 C201.234 273.065 202.187 273.623 203.168 274.199 C204.006 274.693 204.844 275.186 205.708 275.694 C206.464 276.125 207.221 276.556 208 277 C208.657 277.408 209.313 277.817 209.99 278.238 C212.747 279.283 214.198 278.872 217 278 C218.919 277.081 220.802 276.087 222.656 275.043 C223.751 274.431 224.846 273.818 225.974 273.188 C227.149 272.521 228.325 271.854 229.5 271.188 C230.713 270.506 231.927 269.825 233.141 269.145 C238.764 265.987 244.367 262.796 249.957 259.582 C250.867 259.059 251.777 258.536 252.715 257.997 C254.37 257.043 256.022 256.085 257.672 255.122 C264.662 251.076 271.724 247.638 279 244 C279 222.88 279 201.76 279 180 C271.297 183.852 263.767 187.728 256.312 192 C254.325 193.132 252.336 194.264 250.348 195.395 C249.32 195.979 248.293 196.564 247.235 197.167 C243.849 199.085 240.456 200.989 237.059 202.887 C235.922 203.522 234.785 204.156 233.614 204.811 C231.405 206.043 229.196 207.275 226.986 208.506 C225.985 209.065 224.984 209.623 223.953 210.199 C223.51 210.446 223.51 210.446 221.271 211.694 C219.473 212.728 217.726 213.85 216 215 C209.987 214.89 205.157 211.626 200.062 208.75 C199.1 208.216 198.138 207.681 197.147 207.131 C194.092 205.43 191.045 203.717 188 202 C187.032 201.457 186.063 200.913 185.065 200.354 C175.541 195.009 166.05 189.606 156.576 184.173 C143.018 176.403 143.018 176.403 136.312 172.75 C135.319 172.209 134.325 171.667 133.301 171.109 C131 170 131 170 129 170 C129.012 168.819 129.023 167.638 129.035 166.422 C129.045 164.865 129.054 163.307 129.062 161.75 C129.067 161.361 129.067 161.361 129.088 159.395 C129.091 158.64 129.094 157.886 129.098 157.109 C129.103 156.418 129.108 155.727 129.114 155.015 C128.994 152.9 128.576 151.034 128 149 C134.349 149.38 139.088 152.614 144.438 155.75 C146.513 156.946 148.588 158.141 150.664 159.336 C151.72 159.948 152.776 160.56 153.864 161.19 C158.659 163.957 163.487 166.663 168.312 169.375 C174.565 172.901 180.801 176.454 187.016 180.047 C187.604 180.387 188.193 180.728 188.799 181.078 C191.667 182.737 194.533 184.399 197.398 186.064 C198.433 186.664 199.468 187.264 200.535 187.883 C201.447 188.413 202.358 188.943 203.297 189.489 C204.189 189.987 205.081 190.486 206 191 C207 191.58 207.999 192.16 209.029 192.757 C212.383 194.16 213.615 194.161 217 193 C219.07 192.067 219.07 192.067 221.125 190.918 C221.904 190.486 222.683 190.054 223.486 189.609 C224.316 189.14 225.145 188.671 226 188.188 C226.867 187.704 227.734 187.221 228.627 186.723 C236.124 182.53 243.581 178.267 251.02 173.973 C255.29 171.514 259.561 169.147 264 167 C265.334 166.335 266.667 165.668 268 165 C257.121 158.435 246.238 151.879 235.27 145.465 C234.63 145.091 233.991 144.717 233.332 144.332 C230.228 142.518 227.122 140.707 224.013 138.901 C217.733 135.243 211.534 131.492 205.44 127.531 C202.053 125.406 198.541 123.548 195.016 121.664 C191.454 119.698 187.978 117.609 184.5 115.5 C179.464 112.454 174.4 109.512 169.211 106.73 C166.54 105.291 163.881 103.833 161.227 102.363 C160.358 101.883 159.489 101.403 158.594 100.908 C156.873 99.955 155.151 99.001 153.431 98.045 C151.789 97.139 150.139 96.246 148.481 95.369 C146 94 146 94 143.533 92.35 C137.254 88.445 134.283 88.807 128.06 92.675 Z M281.492 92.316 C280.6 92.826 279.708 93.336 278.789 93.862 C277.827 94.423 276.866 94.984 275.875 95.562 C274.875 96.137 273.876 96.712 272.846 97.304 C270.694 98.543 268.545 99.785 266.398 101.031 C262.908 103.053 259.41 105.059 255.91 107.062 C253.585 108.395 251.261 109.729 248.938 111.062 C248.388 111.378 248.388 111.378 245.607 112.973 C235.127 119.017 235.127 119.017 231 122 C231 122.33 231 122.66 231 123 C231.543 123.154 232.086 123.308 232.646 123.467 C238.743 125.33 243.802 128.002 249.188 131.375 C250.943 132.451 252.7 133.527 254.457 134.602 C255.363 135.159 256.268 135.716 257.202 136.29 C261.897 139.159 266.636 141.954 271.375 144.75 C272.295 145.295 273.214 145.84 274.162 146.401 C278.238 148.811 282.322 151.198 286.465 153.492 C287.124 153.859 287.783 154.225 288.461 154.603 C290.174 155.548 291.893 156.482 293.613 157.414 C296 159 296 159 297 162 C297.092 164.042 297.122 166.087 297.12 168.131 C297.121 168.773 297.121 168.773 297.124 172.019 C297.121 173.444 297.117 174.869 297.114 176.294 C297.113 177.792 297.113 179.29 297.114 180.788 C297.114 184.858 297.108 188.927 297.101 192.997 C297.095 197.25 297.095 201.502 297.093 205.754 C297.09 213.807 297.082 221.861 297.072 229.914 C297.061 239.082 297.055 248.25 297.05 257.418 C297.04 276.279 297.022 295.139 297 314 C300.768 312.779 304.093 311.541 307.484 309.488 C308.325 308.985 309.166 308.481 310.032 307.962 C310.929 307.418 311.826 306.873 312.75 306.312 C314.7 305.145 316.65 303.978 318.602 302.812 C319.632 302.196 320.662 301.58 321.724 300.945 C326.922 297.859 332.154 294.831 337.391 291.812 C339.101 290.826 340.81 289.839 342.519 288.851 C343.567 288.247 344.615 287.642 345.695 287.02 C346.624 286.484 347.552 285.949 348.508 285.398 C351 284 351 284 353.269 283.124 C355 282 355 282 355.599 279.814 C356.03 276.789 356.138 273.902 356.154 270.845 C356.163 269.607 356.171 268.369 356.18 267.094 C356.184 265.73 356.189 264.366 356.193 263.002 C356.201 261.559 356.209 260.117 356.218 258.674 C356.244 253.948 356.259 249.222 356.273 244.496 C356.279 242.868 356.284 241.239 356.29 239.611 C356.311 232.84 356.33 226.068 356.341 219.297 C356.357 209.596 356.391 199.896 356.448 190.195 C356.486 183.37 356.506 176.546 356.511 169.721 C356.515 165.645 356.527 161.57 356.559 157.494 C356.589 153.663 356.596 149.833 356.584 146.002 C356.584 144.596 356.592 143.19 356.609 141.784 C356.632 139.865 356.621 137.947 356.608 136.028 C356.611 134.954 356.615 133.88 356.618 132.774 C355.784 129.032 354.142 128.065 351 126 C349.061 124.781 347.098 123.601 345.117 122.453 C344.553 122.125 343.989 121.796 343.408 121.457 C342.196 120.752 340.983 120.048 339.769 119.345 C337.191 117.854 334.619 116.355 332.046 114.856 C330.712 114.078 329.377 113.301 328.042 112.525 C321.006 108.429 314.001 104.28 307 100.125 C305.868 99.454 304.736 98.782 303.57 98.091 C295.098 93.065 295.098 93.065 292.414 91.3 C288.135 88.996 285.408 90.053 281.492 92.316 Z M1057 133 C1055.453 136.465 1054.725 139.295 1054.586 143.082 C1054.567 143.548 1054.567 143.548 1054.469 145.904 C1054.453 146.384 1054.453 146.384 1054.375 148.812 C1054.356 149.302 1054.356 149.302 1054.258 151.779 C1054.164 154.186 1054.081 156.593 1054 159 C1049.38 159 1044.76 159 1040 159 C1040 160.32 1040 161.64 1040 163 C1044.62 163 1049.24 163 1054 163 C1053.835 165.062 1053.67 167.125 1053.5 169.25 C1050.866 206.733 1050.866 206.733 1059.938 218.188 C1061.402 219.855 1061.402 219.855 1063 221 C1064.32 221 1065.64 221 1067 221 C1066.702 220.433 1066.404 219.866 1066.098 219.281 C1059.204 204.954 1060.693 188.248 1061.438 172.812 C1061.477 171.962 1061.516 171.111 1061.556 170.234 C1061.881 164.119 1061.881 164.119 1063 163 C1065.526 162.763 1068.031 162.578 1070.562 162.438 C1070.918 162.416 1070.918 162.416 1072.717 162.307 C1074.478 162.2 1076.239 162.1 1078 162 C1078 161.01 1078 160.02 1078 159 C1072.72 159 1067.44 159 1062 159 C1062.023 157.291 1062.046 155.581 1062.07 153.82 C1062.089 151.589 1062.107 149.357 1062.125 147.125 C1062.142 145.997 1062.159 144.869 1062.176 143.707 C1062.182 142.631 1062.189 141.554 1062.195 140.445 C1062.206 139.45 1062.216 138.455 1062.227 137.43 C1062 135 1062 135 1060 133 C1059.01 133 1058.02 133 1057 133 Z M847 163 C846.959 165 846.957 167 847 169 C847.99 169.33 848.98 169.66 850 170 C851.5 168.812 851.5 168.812 853 167 C853.188 164.312 853.188 164.312 853 162 C848.125 161.875 848.125 161.875 847 163 Z M868.676 182.668 C867.724 184.073 866.853 185.533 866 187 C864.667 185 863.333 183 862 181 C858.125 181.875 858.125 181.875 857 183 C856.971 184.917 857.013 186.834 857.086 188.75 C857.13 189.915 857.174 191.081 857.219 192.281 C857.27 193.508 857.322 194.736 857.375 196 C857.419 197.227 857.463 198.454 857.508 199.719 C857.872 208.872 857.872 208.872 859 210 C860.666 210.041 862.334 210.043 864 210 C864.191 209.461 864.382 208.922 864.579 208.367 C865.463 205.888 866.356 203.413 867.25 200.938 C867.55 200.09 867.851 199.242 868.16 198.369 C870.019 193.249 871.979 188.549 875 184 C875.99 183.67 876.98 183.34 878 183 C878.17 183.545 878.34 184.091 878.516 184.652 C884.015 201.765 884.015 201.765 892.312 206.25 C900.227 208.459 906.743 206.354 914 203 C917.173 201.204 920.097 199.203 923 197 C923.674 196.491 924.348 195.982 925.043 195.457 C928.545 192.648 930.81 190.494 932 186 C927.289 186 926.955 186.591 923.75 189.75 C917.206 195.822 909.899 199.653 900.812 200.188 C898.379 200.025 896.34 199.626 894 199 C893.746 197.903 893.492 196.806 893.23 195.676 C892.883 194.221 892.536 192.767 892.188 191.312 C892.022 190.591 891.856 189.87 891.686 189.127 C890.426 183.922 888.867 179.867 885 176 C877.765 175.142 873.254 176.902 868.676 182.668 Z M1094 178 C1093.377 179.784 1093.377 179.784 1092.852 181.922 C1092.65 182.7 1092.449 183.479 1092.242 184.281 C1091.835 185.911 1091.431 187.541 1091.031 189.172 C1089.736 194.155 1088.391 198.063 1085 202 C1083.68 202 1082.36 202 1081 202 C1079.705 196.891 1079.974 191.837 1080.127 186.619 C1080.157 184.746 1080.085 182.872 1080 181 C1079.34 180.34 1078.68 179.68 1078 179 C1075.5 179.062 1075.5 179.062 1073 180 C1069.95 185.91 1069.859 193.125 1071.723 199.453 C1073.189 202.659 1074.672 204.707 1077.312 207.062 C1081.085 208.379 1083.159 208.126 1087 207 C1089.547 205.203 1091.791 203.195 1094 201 C1094.205 201.566 1094.41 202.132 1094.621 202.715 C1094.891 203.448 1095.16 204.182 1095.438 204.938 C1095.704 205.668 1095.971 206.399 1096.246 207.152 C1097 209 1097 209 1098 210 C1099.666 210.041 1101.334 210.043 1103 210 C1104.276 206.172 1103.283 204.76 1102 201 C1101.681 198.024 1101.681 198.024 1101.586 194.945 C1101.547 193.837 1101.509 192.728 1101.469 191.586 C1101.438 190.444 1101.407 189.302 1101.375 188.125 C1101.336 186.96 1101.298 185.794 1101.258 184.594 C1101.164 181.729 1101.078 178.865 1101 176 C1096.25 175.75 1096.25 175.75 1094 178 Z M823 178 C820.077 180.923 820.663 184.078 820.562 188 C820.297 194.721 819.468 200.682 817 207 C815.35 207.33 813.7 207.66 812 208 C809.396 201.628 807.561 195.904 807.273 188.996 C807 187 807 187 805 185 C803 185.188 803 185.188 801 186 C798.925 189.112 798.289 191.329 797.438 194.938 C797.189 195.978 796.94 197.018 796.684 198.09 C796.458 199.05 796.232 200.011 796 201 C795.669 202.334 795.337 203.668 795 205 C792.027 202.544 791.574 200.758 791 197 C790.706 193.33 790.495 189.66 790.281 185.984 C790 183 790 183 789 182 C787.334 181.959 785.666 181.957 784 182 C781.691 186.437 782.006 190.14 782.688 194.938 C782.767 195.628 782.846 196.318 782.928 197.029 C783.522 201.54 784.623 205.119 787 209 C790.534 211.356 791.836 211.49 796 211 C799.375 209 799.375 209 802 207 C802.485 207.505 802.969 208.011 803.469 208.531 C809.637 214.509 809.637 214.509 814.062 214.812 C818.895 214.337 821.976 211.633 825 208 C827.76 203.032 828.512 198.567 829 193 C832 193 832 193 835 194 C836.394 194.067 837.792 194.085 839.188 194.062 C840.446 194.042 841.704 194.021 843 194 C842.977 194.724 842.954 195.449 842.93 196.195 C842.83 201.546 842.835 205.994 845 211 C846.65 211 848.3 211 850 211 C851.139 207.582 851.113 204.965 851.098 201.363 C851.094 200.065 851.091 198.766 851.088 197.428 C851.08 196.056 851.071 194.684 851.062 193.312 C851.057 191.929 851.053 190.546 851.049 189.162 C851.037 185.775 851.021 182.387 851 179 C849.02 179 847.04 179 845 179 C844.01 182.63 843.02 186.26 842 190 C839.014 190.187 837.675 190.229 835 189 C832.7 186.252 830.794 183.409 828.895 180.371 C828.269 179.589 827.644 178.806 827 178 C825.68 178 824.36 178 823 178 Z M558.125 180.562 C556.584 183.902 556.603 186.365 557 190 C558.622 192.204 559.576 192.904 562.262 193.512 C563.062 193.57 563.863 193.628 564.688 193.688 C565.496 193.753 566.304 193.819 567.137 193.887 C567.752 193.924 568.366 193.961 569 194 C568.928 194.278 568.928 194.278 568.562 195.688 C567.125 201.596 565.754 207.53 567.875 213.438 C569 215 569 215 571 216 C576.72 216.55 579.569 215.644 584 212 C588.864 206.989 592.561 199.849 594 193 C593.34 192.67 592.68 192.34 592 192 C588.666 195.017 586.791 198.649 584.598 202.527 C582.945 205.086 581.328 207.036 579 209 C578.01 209 577.02 209 576 209 C576.046 207.735 576.093 206.471 576.141 205.168 C576.178 203.508 576.215 201.848 576.25 200.188 C576.284 199.354 576.317 198.521 576.352 197.662 C576.45 191.529 576.45 191.529 574.219 188.906 C570.952 187.572 568.382 188.285 565 189 C565.156 188.362 565.312 187.724 565.473 187.066 C565.667 186.24 565.862 185.414 566.062 184.562 C566.26 183.739 566.457 182.915 566.66 182.066 C566.716 181.725 566.716 181.725 567 180 C566 179 566 179 563.125 178.688 C560 179 560 179 558.125 180.562 Z M998 180 C997.125 183.188 997.125 183.188 998 187 C999.972 189.751 1002.072 192.261 1004.348 194.766 C1004.893 195.503 1005.438 196.24 1006 197 C1004.764 200.707 1003.033 201.649 1000 204 C998.601 206.799 998.747 208.905 999 212 C1000.853 214.559 1001.938 214.979 1005 216 C1010.36 216.346 1013.619 216.452 1018 213 C1019.54 209.92 1019.224 207.413 1019 204 C1018.177 201.532 1017.149 199.345 1016 197 C1018.64 196.34 1021.28 195.68 1024 195 C1023.918 196.196 1023.835 197.392 1023.75 198.625 C1023.742 203.097 1025.113 205.536 1028 209 C1031.787 211.525 1033.503 211.525 1038 211 C1043.105 208.563 1046.069 205.364 1048 200 C1049.664 193.82 1048.567 188.742 1046 183 C1043.801 180.361 1042.467 179.253 1039.074 178.668 C1034.61 178.441 1031.42 178.949 1028 182 C1027.175 183.482 1026.386 184.984 1025.625 186.5 C1023.955 189.735 1022.788 191.596 1019.438 193.125 C1015.011 194.252 1015.011 194.252 1012 193 C1010.262 191.039 1010.262 191.039 1008.688 188.625 C1008.155 187.834 1007.623 187.042 1007.074 186.227 C1006 184 1006 184 1007 181 C1009.958 179.776 1011.997 180.035 1015 181 C1015 179.68 1015 178.36 1015 177 C1008.445 172.63 1002.768 174.398 998 180 Z M597 206 C597.375 209.625 597.375 209.625 598 213 C599.812 213.688 599.812 213.688 602 214 C603.75 212.938 603.75 212.938 605 211 C605.25 207.875 605.25 207.875 605 205 C604 204 604 204 601.562 203.812 C599 204 599 204 597 206 Z M954 313 C954 321.91 954 330.82 954 340 C955.32 339.67 956.64 339.34 958 339 C958 330.42 958 321.84 958 313 C956.68 313 955.36 313 954 313 Z M1217 313 C1217 321.58 1217 330.16 1217 339 C1218.32 339 1219.64 339 1221 339 C1221 330.42 1221 321.84 1221 313 C1219.68 313 1218.36 313 1217 313 Z M438 319 C435.856 323.288 436.548 328.554 437.938 333 C440.715 335.694 442.98 335.802 446.746 336.152 C449.379 335.974 450.819 335.486 453 334 C455.667 329.97 455.808 325.673 455 321 C452.61 317.627 450.932 316.337 447.062 314.938 C442.991 315.021 441.115 316.465 438 319 Z M592 319 C590.13 322.443 589.676 325.423 590.465 329.262 C591.387 331.629 592.218 333.182 594 335 C597.821 336.418 601.304 336.596 605.156 335.242 C607.43 333.71 608.073 332.566 609 330 C609.81 325.236 609.704 321.993 606.875 318 C601.086 313.973 597.225 314.131 592 319 Z M1039 318 C1036.873 320.714 1036.071 322.524 1035.562 325.938 C1036.116 329.812 1037.592 331.954 1040 335 C1043.1 336.55 1045.579 336.29 1049 336 C1051.753 334.204 1053.526 332.947 1055 330 C1055.459 325.409 1055.721 322.33 1052.875 318.562 C1048.001 314.218 1044.124 313.846 1039 318 Z M1233 318 C1230.669 321.419 1230 323.41 1230 327.562 C1231.222 331.763 1232.449 333.453 1236 336 C1240.324 336.695 1242.232 336.49 1245.938 334.125 C1248 332 1248 332 1248 330 C1247.319 330.144 1246.639 330.289 1245.938 330.438 C1242.637 331.069 1239.329 331.543 1236 332 C1235.75 330.566 1235.526 329.127 1235.312 327.688 C1235.185 326.887 1235.057 326.086 1234.926 325.262 C1235 323 1235 323 1236.281 321.219 C1238.813 319.423 1240.985 319.799 1244 320 C1244 320.66 1244 321.32 1244 322 C1245.32 322 1246.64 322 1248 322 C1247.312 319.625 1247.312 319.625 1246 317 C1240.881 314.244 1237.626 314.531 1233 318 Z M1398 316 C1398 316.99 1398 317.98 1398 319 C1399.65 319 1401.3 319 1403 319 C1403 324.61 1403 330.22 1403 336 C1404.32 336 1405.64 336 1407 336 C1407 330.39 1407 324.78 1407 319 C1408.65 319 1410.3 319 1412 319 C1411.67 317.68 1411.34 316.36 1411 315 C1406.526 314.911 1402.394 315.143 1398 316 Z M406 318 C403.129 320.871 403.197 322.989 403 327 C404.911 333.137 404.911 333.137 407.812 335.438 C412.107 336.542 414.877 336.624 418.812 334.438 C421.59 331.342 421.764 329.084 422 325 C418.7 325 415.4 325 412 325 C412 325.99 412 326.98 412 328 C413.98 328 415.96 328 418 328 C417.67 329.32 417.34 330.64 417 332 C414.36 332 411.72 332 409 332 C408.75 330.566 408.526 329.127 408.312 327.688 C408.185 326.887 408.057 326.086 407.926 325.262 C408 323 408 323 409.281 321.219 C411.813 319.423 413.985 319.799 417 320 C417 320.66 417 321.32 417 322 C418.32 322 419.64 322 421 322 C420.875 320.188 420.875 320.188 420 318 C413.982 314.415 412.049 314.723 406 318 Z M425 316 C425 322.6 425 329.2 425 336 C428.3 336 431.6 336 435 336 C435 335.01 435 334.02 435 333 C433.02 333 431.04 333 429 333 C429 327.39 429 321.78 429 316 C427.68 316 426.36 316 425 316 Z M458 316 C458 322.6 458 329.2 458 336 C458.877 336.021 458.877 336.021 463.312 336.125 C463.806 336.137 463.806 336.137 466.301 336.195 C469 336 469 336 472 334 C472.812 332.188 472.812 332.188 473 330 C472.67 329.216 472.34 328.433 472 327.625 C471 325 471 325 471.562 321.875 C472 319 472 319 470.883 317.332 C468.281 315.491 466.464 315.701 463.312 315.812 C461.559 315.874 459.806 315.936 458 316 Z M481 316 C475 330.738 475 330.738 475 336 C476.32 335.67 477.64 335.34 479 335 C479 334.01 479 333.02 479 332 C481.64 332 484.28 332 487 332 C487.33 333.32 487.66 334.64 488 336 C489.32 335.67 490.64 335.34 492 335 C490.02 328.73 488.04 322.46 486 316 C484.35 316 482.7 316 481 316 Z M495 316 C495 322.6 495 329.2 495 336 C498.3 336 501.6 336 505 336 C505 335.01 505 334.02 505 333 C503.02 332.67 501.04 332.34 499 332 C498.67 326.72 498.34 321.44 498 316 C497.01 316 496.02 316 495 316 Z M514 316 C514 322.6 514 329.2 514 336 C517.3 336 520.6 336 524 336 C524 335.01 524 334.02 524 333 C521.69 333 519.38 333 517 333 C517 331.02 517 329.04 517 327 C519.31 327 521.62 327 524 327 C524 326.01 524 325.02 524 324 C521.69 324 519.38 324 517 324 C517 322.35 517 320.7 517 319 C519.31 319 521.62 319 524 319 C524 318.01 524 317.02 524 316 C520.7 316 517.4 316 514 316 Z M528 316 C528 322.6 528 329.2 528 336 C529.32 336 530.64 336 532 336 C532.33 332.37 532.66 328.74 533 325 C533.459 325.794 533.918 326.588 534.391 327.406 C534.697 327.917 534.697 327.917 536.25 330.5 C536.853 331.521 537.457 332.542 538.078 333.594 C538.712 334.388 539.347 335.182 540 336 C541.32 336 542.64 336 544 336 C544 329.4 544 322.8 544 316 C542.68 316 541.36 316 540 316 C539.67 319.63 539.34 323.26 539 327 C538.771 326.603 538.771 326.603 537.609 324.594 C536.996 323.573 536.382 322.552 535.75 321.5 C535.147 320.479 534.543 319.458 533.922 318.406 C533.288 317.612 532.653 316.818 532 316 C530.68 316 529.36 316 528 316 Z M546 316 C547.98 322.27 549.96 328.54 552 335 C553.65 335.33 555.3 335.66 557 336 C559.879 329.407 562.509 323.05 564 316 C562.68 316 561.36 316 560 316 C558.35 320.62 556.7 325.24 555 330 C553.68 325.71 552.36 321.42 551 317 C549.35 316.67 547.7 316.34 546 316 Z M567 316 C567 322.6 567 329.2 567 336 C567.99 336 568.98 336 570 336 C570 329.4 570 322.8 570 316 C569.01 316 568.02 316 567 316 Z M574 316 C574 322.6 574 329.2 574 336 C575.32 335.67 576.64 335.34 578 335 C577.67 332.69 577.34 330.38 577 328 C577.99 328 578.98 328 580 328 C580.289 328.949 580.577 329.897 580.875 330.875 C582 334 582 334 584 336 C585.32 335.67 586.64 335.34 588 335 C586.68 332.36 585.36 329.72 584 327 C584.99 326.67 585.98 326.34 587 326 C588.336 320.654 588.336 320.654 586.875 317.812 C585 316 585 316 582.301 315.609 C581.315 315.656 580.329 315.702 579.312 315.75 C577.559 315.832 575.806 315.915 574 316 Z M612 316 C612 322.6 612 329.2 612 336 C613.32 336 614.64 336 616 336 C616.33 332.37 616.66 328.74 617 325 C617.459 325.794 617.918 326.588 618.391 327.406 C618.697 327.917 618.697 327.917 620.25 330.5 C620.853 331.521 621.457 332.542 622.078 333.594 C622.712 334.388 623.347 335.182 624 336 C625.32 336 626.64 336 628 336 C628 329.4 628 322.8 628 316 C626.68 316 625.36 316 624 316 C623.67 319.63 623.34 323.26 623 327 C621.02 323.37 619.04 319.74 617 316 C615.35 316 613.7 316 612 316 Z M632 316 C632 322.6 632 329.2 632 336 C633.32 335.67 634.64 335.34 636 335 C636.33 332.69 636.66 330.38 637 328 C638.32 330.64 639.64 333.28 641 336 C641.99 335.67 642.98 335.34 644 335 C645.688 331.438 645.688 331.438 647 328 C647.33 330.31 647.66 332.62 648 335 C649.32 335.33 650.64 335.66 652 336 C652 329.4 652 322.8 652 316 C650.35 316.33 648.7 316.66 647 317 C645.637 319.18 645.637 319.18 644.688 321.875 C644.361 322.759 644.035 323.644 643.699 324.555 C643 327 643 327 643 330 C642.34 330 641.68 330 641 330 C640.918 329.175 640.835 328.35 640.75 327.5 C639.836 323.232 638.078 319.808 636 316 C634.68 316 633.36 316 632 316 Z M656 316 C656 322.6 656 329.2 656 336 C659.63 336 663.26 336 667 336 C667 335.01 667 334.02 667 333 C664.69 333 662.38 333 660 333 C660 331.02 660 329.04 660 327 C661.98 327 663.96 327 666 327 C666 326.01 666 325.02 666 324 C664.02 324 662.04 324 660 324 C660 322.35 660 320.7 660 319 C662.31 319 664.62 319 667 319 C667 318.01 667 317.02 667 316 C663.37 316 659.74 316 656 316 Z M670 316 C670 322.6 670 329.2 670 336 C671.32 336 672.64 336 674 336 C674.33 332.37 674.66 328.74 675 325 C675.459 325.794 675.918 326.588 676.391 327.406 C676.697 327.917 676.697 327.917 678.25 330.5 C678.853 331.521 679.457 332.542 680.078 333.594 C680.712 334.388 681.347 335.182 682 336 C683.32 336 684.64 336 686 336 C686 329.4 686 322.8 686 316 C684.68 316 683.36 316 682 316 C681.67 319.63 681.34 323.26 681 327 C680.771 326.603 680.771 326.603 679.609 324.594 C678.996 323.573 678.382 322.552 677.75 321.5 C677.147 320.479 676.543 319.458 675.922 318.406 C675.288 317.612 674.653 316.818 674 316 C672.68 316 671.36 316 670 316 Z M689 316 C689 316.99 689 317.98 689 319 C690.65 319 692.3 319 694 319 C694 324.61 694 330.22 694 336 C695.32 335.67 696.64 335.34 698 335 C698 329.72 698 324.44 698 319 C699.65 319 701.3 319 703 319 C703 318.01 703 317.02 703 316 C698.38 316 693.76 316 689 316 Z M710 316 C708.02 322.6 706.04 329.2 704 336 C705.65 335.67 707.3 335.34 709 335 C709 334.01 709 333.02 709 332 C711.64 332 714.28 332 717 332 C717.33 333.32 717.66 334.64 718 336 C719.32 335.67 720.64 335.34 722 335 C721.026 332.019 720.045 329.041 719.062 326.062 C718.785 325.212 718.507 324.362 718.221 323.486 C717.953 322.677 717.686 321.869 717.41 321.035 C717.164 320.286 716.918 319.537 716.664 318.766 C716 317 716 317 715 316 C713.35 316 711.7 316 710 316 Z M725 316 C725 322.6 725 329.2 725 336 C728.3 336 731.6 336 735 336 C735 335.01 735 334.02 735 333 C732.69 333 730.38 333 728 333 C728 327.39 728 321.78 728 316 C727.01 316 726.02 316 725 316 Z M744 316 C744 322.6 744 329.2 744 336 C744.99 336 745.98 336 747 336 C747 333.03 747 330.06 747 327 C749.64 327 752.28 327 755 327 C755 329.64 755 332.28 755 335 C756.32 335.33 757.64 335.66 759 336 C759 329.4 759 322.8 759 316 C757.68 316 756.36 316 755 316 C755 318.64 755 321.28 755 324 C752.36 324 749.72 324 747 324 C747 321.36 747 318.72 747 316 C746.01 316 745.02 316 744 316 Z M763 316 C763 322.6 763 329.2 763 336 C766.63 336 770.26 336 774 336 C774 335.01 774 334.02 774 333 C771.69 333 769.38 333 767 333 C767 331.02 767 329.04 767 327 C768.98 327 770.96 327 773 327 C773 326.01 773 325.02 773 324 C771.02 324 769.04 324 767 324 C767 322.35 767 320.7 767 319 C769.31 319 771.62 319 774 319 C774 318.01 774 317.02 774 316 C770.37 316 766.74 316 763 316 Z M782 316 C780.02 322.6 778.04 329.2 776 336 C777.32 336 778.64 336 780 336 C780.33 334.68 780.66 333.36 781 332 C783.64 332 786.28 332 789 332 C789.33 333.32 789.66 334.64 790 336 C791.32 335.67 792.64 335.34 794 335 C793.026 332.019 792.045 329.041 791.062 326.062 C790.785 325.212 790.507 324.362 790.221 323.486 C789.953 322.677 789.686 321.869 789.41 321.035 C789.164 320.286 788.918 319.537 788.664 318.766 C788 317 788 317 787 316 C785.35 316 783.7 316 782 316 Z M796 316 C796 322.6 796 329.2 796 336 C799.3 336 802.6 336 806 336 C806.33 335.01 806.66 334.02 807 333 C804.69 333 802.38 333 800 333 C800 327.39 800 321.78 800 316 C798.68 316 797.36 316 796 316 Z M808 316 C808 316.99 808 317.98 808 319 C809.65 319 811.3 319 813 319 C813 324.61 813 330.22 813 336 C814.32 336 815.64 336 817 336 C817 330.39 817 324.78 817 319 C818.65 319 820.3 319 822 319 C822 318.01 822 317.02 822 316 C817.38 316 812.76 316 808 316 Z M825 316 C825 322.6 825 329.2 825 336 C825.99 336 826.98 336 828 336 C828 333.03 828 330.06 828 327 C830.64 327 833.28 327 836 327 C836 329.97 836 332.94 836 336 C837.32 336 838.64 336 840 336 C840 329.4 840 322.8 840 316 C838.68 316 837.36 316 836 316 C836 318.64 836 321.28 836 324 C833.36 324 830.72 324 828 324 C828 321.36 828 318.72 828 316 C827.01 316 826.02 316 825 316 Z M850 316 C850 322.6 850 329.2 850 336 C853.3 336 856.6 336 860 336 C860 335.01 860 334.02 860 333 C858.02 333 856.04 333 854 333 C854 327.39 854 321.78 854 316 C852.68 316 851.36 316 850 316 Z M863 316 C863 322.6 863 329.2 863 336 C866.3 336 869.6 336 873 336 C873.33 335.01 873.66 334.02 874 333 C871.69 332.67 869.38 332.34 867 332 C867 330.35 867 328.7 867 327 C868.98 327 870.96 327 873 327 C873 326.01 873 325.02 873 324 C870.69 324 868.38 324 866 324 C866.33 322.35 866.66 320.7 867 319 C869.31 319 871.62 319 874 319 C874 318.01 874 317.02 874 316 C870.37 316 866.74 316 863 316 Z M882 316 C880.995 318.957 879.997 321.916 879 324.875 C878.714 325.717 878.428 326.559 878.133 327.426 C877.862 328.231 877.591 329.037 877.312 329.867 C877.187 330.239 877.187 330.239 876.551 332.121 C876 334 876 334 876 336 C877.32 336 878.64 336 880 336 C880.33 334.68 880.66 333.36 881 332 C883.64 332 886.28 332 889 332 C889.33 333.32 889.66 334.64 890 336 C890.99 336 891.98 336 893 336 C892.356 331.582 891.325 327.45 890 323.188 C889.649 322.047 889.299 320.906 888.938 319.73 C888 317 888 317 887 316 C885.334 315.959 883.666 315.957 882 316 Z M896 316 C896 322.6 896 329.2 896 336 C907.69 336 907.69 336 911 333 C912.866 329.947 913.002 328.096 912.938 324.5 C911.755 320.084 910.835 318.531 907 316 C903.229 315.586 899.814 315.77 896 316 Z M915 316 C914.973 318.583 914.953 321.167 914.938 323.75 C914.929 324.48 914.921 325.209 914.912 325.961 C914.896 329.557 915.121 332.485 916 336 C919.3 336 922.6 336 926 336 C926 335.01 926 334.02 926 333 C923.69 333 921.38 333 919 333 C919 331.02 919 329.04 919 327 C920.98 327 922.96 327 925 327 C925 326.01 925 325.02 925 324 C923.02 324 921.04 324 919 324 C919 322.35 919 320.7 919 319 C921.64 319 924.28 319 927 319 C927 318.01 927 317.02 927 316 C923.04 316 919.08 316 915 316 Z M930 316 C930 322.6 930 329.2 930 336 C930.99 336 931.98 336 933 336 C933 333.36 933 330.72 933 328 C933.99 328 934.98 328 936 328 C936.309 328.949 936.619 329.897 936.938 330.875 C938 334 938 334 939 336 C940.32 336 941.64 336 943 336 C942.301 332.853 941.239 329.974 940 327 C940.66 327 941.32 327 942 327 C943.507 323.987 943.178 321.317 943 318 C941 316 941 316 938.398 315.805 C937.401 315.828 936.403 315.851 935.375 315.875 C933.601 315.916 931.827 315.957 930 316 Z M968 316 C968 322.6 968 329.2 968 336 C969.32 336 970.64 336 972 336 C972.33 333.69 972.66 331.38 973 329 C974.98 331.31 976.96 333.62 979 336 C980.32 335.67 981.64 335.34 983 335 C982.778 334.734 982.778 334.734 981.652 333.391 C981.086 332.684 980.521 331.978 979.938 331.25 C979.369 330.554 978.801 329.858 978.215 329.141 C977 327 977 327 977.188 324.898 C978.331 322.226 980.171 320.242 982 318 C982 317.34 982 316.68 982 316 C979.75 316.125 979.75 316.125 977 317 C974.688 320.062 974.688 320.062 973 323 C972.67 320.69 972.34 318.38 972 316 C970.68 316 969.36 316 968 316 Z M986 316 C986 322.6 986 329.2 986 336 C989.63 336 993.26 336 997 336 C997 335.01 997 334.02 997 333 C994.69 333 992.38 333 990 333 C990 331.02 990 329.04 990 327 C991.98 327 993.96 327 996 327 C996 326.01 996 325.02 996 324 C994.02 324 992.04 324 990 324 C990 322.35 990 320.7 990 319 C992.31 319 994.62 319 997 319 C997 318.01 997 317.02 997 316 C993.37 316 989.74 316 986 316 Z M999 316 C999.349 316.69 999.699 317.379 1000.059 318.09 C1003.028 324.221 1004.665 329.192 1005 336 C1006.32 336 1007.64 336 1009 336 C1009.098 335.394 1009.196 334.788 1009.297 334.164 C1010.446 327.723 1012.377 321.985 1015 316 C1013.35 316.33 1011.7 316.66 1010 317 C1009.34 319.31 1008.68 321.62 1008 324 C1007.34 324 1006.68 324 1006 324 C1005.876 323.237 1005.753 322.474 1005.625 321.688 C1005 319 1005 319 1003 316 C1001.68 316 1000.36 316 999 316 Z M1017 316 C1017 322.6 1017 329.2 1017 336 C1018.32 336 1019.64 336 1021 336 C1021.33 332.04 1021.66 328.08 1022 324 C1022.459 324.782 1022.918 325.565 1023.391 326.371 C1024.004 327.383 1024.618 328.395 1025.25 329.438 C1025.853 330.447 1026.457 331.456 1027.078 332.496 C1029 335 1029 335 1033 336 C1033 329.4 1033 322.8 1033 316 C1032.01 316 1031.02 316 1030 316 C1029.67 319.96 1029.34 323.92 1029 328 C1028.553 327.218 1028.105 326.435 1027.645 325.629 C1027.342 325.123 1027.342 325.123 1025.812 322.562 C1025.221 321.553 1024.629 320.544 1024.02 319.504 C1022 317 1022 317 1017 316 Z M1057 316 C1057 316.99 1057 317.98 1057 319 C1058.65 319 1060.3 319 1062 319 C1062 324.61 1062 330.22 1062 336 C1063.32 335.67 1064.64 335.34 1066 335 C1066 329.72 1066 324.44 1066 319 C1067.65 318.67 1069.3 318.34 1071 318 C1071 317.34 1071 316.68 1071 316 C1066.38 316 1061.76 316 1057 316 Z M1074 316 C1074 322.6 1074 329.2 1074 336 C1077.3 336 1080.6 336 1084 336 C1084 335.01 1084 334.02 1084 333 C1081.69 333 1079.38 333 1077 333 C1077 331.02 1077 329.04 1077 327 C1079.31 327 1081.62 327 1084 327 C1083.67 326.01 1083.34 325.02 1083 324 C1081.02 324 1079.04 324 1077 324 C1077 322.35 1077 320.7 1077 319 C1079.31 319 1081.62 319 1084 319 C1084.33 318.01 1084.66 317.02 1085 316 C1081.37 316 1077.74 316 1074 316 Z M1097.188 316.312 C1094.033 318.746 1094.033 318.746 1093.688 321.375 C1094 324 1094 324 1095.688 325.688 C1098.068 327.038 1100.428 328.071 1103 329 C1103 329.99 1103 330.98 1103 332 C1101.68 332 1100.36 332 1099 332 C1098.67 331.34 1098.34 330.68 1098 330 C1096.68 330 1095.36 330 1094 330 C1094.573 332.867 1094.861 333.861 1097 336 C1101.336 336.315 1103.327 336.449 1107 334 C1108.079 331.071 1108.309 329.676 1107 326.812 C1104.269 324.337 1101.548 323.803 1098 323 C1098.33 322.01 1098.66 321.02 1099 320 C1101.64 320.33 1104.28 320.66 1107 321 C1106.875 319.125 1106.875 319.125 1106 317 C1102.42 315.128 1100.911 314.575 1097.188 316.312 Z M1111 316 C1111 322.6 1111 329.2 1111 336 C1112.32 336 1113.64 336 1115 336 C1115 333.36 1115 330.72 1115 328 C1115.464 328.021 1115.464 328.021 1117.812 328.125 C1121 328 1121 328 1124 326 C1124.363 324.125 1124.363 324.125 1124.312 322 C1124.309 321.299 1124.305 320.598 1124.301 319.875 C1124 318 1124 318 1122 316 C1119.398 315.805 1119.398 315.805 1116.375 315.875 C1114.601 315.916 1112.828 315.957 1111 316 Z M1127 316 C1127 322.6 1127 329.2 1127 336 C1130.63 336 1134.26 336 1138 336 C1138 335.01 1138 334.02 1138 333 C1135.69 333 1133.38 333 1131 333 C1131 331.02 1131 329.04 1131 327 C1132.98 327 1134.96 327 1137 327 C1137 326.01 1137 325.02 1137 324 C1135.02 324 1133.04 324 1131 324 C1131 322.35 1131 320.7 1131 319 C1133.31 319 1135.62 319 1138 319 C1138 318.01 1138 317.02 1138 316 C1134.37 316 1130.74 316 1127 316 Z M1147 316 C1141 329.143 1141 329.143 1141 336 C1142.32 335.67 1143.64 335.34 1145 335 C1145 334.01 1145 333.02 1145 332 C1147.64 332.33 1150.28 332.66 1153 333 C1153.33 333.99 1153.66 334.98 1154 336 C1155.32 336 1156.64 336 1158 336 C1156.221 329.249 1154.296 322.594 1152 316 C1150.35 316 1148.7 316 1147 316 Z M1161 316 C1161 322.6 1161 329.2 1161 336 C1161.99 336 1162.98 336 1164 336 C1164 333.36 1164 330.72 1164 328 C1164.66 328 1165.32 328 1166 328 C1166.268 328.577 1166.536 329.155 1166.812 329.75 C1168.065 332.124 1169.131 334.062 1171 336 C1173.605 336.109 1173.605 336.109 1176 336 C1175.578 335.457 1175.157 334.915 1174.723 334.355 C1174.175 333.64 1173.627 332.925 1173.062 332.188 C1172.517 331.48 1171.972 330.772 1171.41 330.043 C1170 328 1170 328 1169 325 C1170.215 322.957 1170.215 322.957 1171.938 320.812 C1172.503 320.097 1173.069 319.382 1173.652 318.645 C1174.097 318.102 1174.542 317.559 1175 317 C1173.68 316.67 1172.36 316.34 1171 316 C1169.02 318.31 1167.04 320.62 1165 323 C1164.67 320.69 1164.34 318.38 1164 316 C1163.01 316 1162.02 316 1161 316 Z M1179 316 C1179 322.6 1179 329.2 1179 336 C1182.3 336 1185.6 336 1189 336 C1189 335.01 1189 334.02 1189 333 C1186.69 333 1184.38 333 1182 333 C1182 331.02 1182 329.04 1182 327 C1184.31 327 1186.62 327 1189 327 C1189 326.01 1189 325.02 1189 324 C1186.69 324 1184.38 324 1182 324 C1182 322.35 1182 320.7 1182 319 C1184.31 319 1186.62 319 1189 319 C1189 318.01 1189 317.02 1189 316 C1185.7 316 1182.4 316 1179 316 Z M1193 316 C1193 322.6 1193 329.2 1193 336 C1194.32 335.67 1195.64 335.34 1197 335 C1197 332.69 1197 330.38 1197 328 C1197.66 328 1198.32 328 1199 328 C1199.289 328.949 1199.578 329.897 1199.875 330.875 C1201 334 1201 334 1203 336 C1204.32 335.67 1205.64 335.34 1207 335 C1205.68 332.36 1204.36 329.72 1203 327 C1203.66 327 1204.32 327 1205 327 C1207 324 1207 324 1206.75 320.938 C1206 318 1206 318 1204 316 C1201.398 315.805 1201.398 315.805 1198.375 315.875 C1196.601 315.916 1194.828 315.957 1193 316 Z M1257 316 C1255.994 318.769 1254.995 321.54 1254 324.312 C1253.714 325.098 1253.428 325.884 1253.133 326.693 C1252.862 327.451 1252.591 328.208 1252.312 328.988 C1252.061 329.685 1251.81 330.381 1251.551 331.099 C1251 333 1251 333 1251 336 C1252.32 335.67 1253.64 335.34 1255 335 C1255 334.01 1255 333.02 1255 332 C1257.64 332.33 1260.28 332.66 1263 333 C1263.33 333.99 1263.66 334.98 1264 336 C1265.32 336 1266.64 336 1268 336 C1267.368 331.275 1266.082 327.094 1264.438 322.625 C1264.204 321.984 1263.97 321.344 1263.729 320.684 C1263.157 319.121 1262.579 317.56 1262 316 C1260.35 316 1258.7 316 1257 316 Z M1271 316 C1271 322.6 1271 329.2 1271 336 C1272.32 335.67 1273.64 335.34 1275 335 C1275 332.69 1275 330.38 1275 328 C1275.66 328 1276.32 328 1277 328 C1277.289 328.949 1277.578 329.897 1277.875 330.875 C1279 334 1279 334 1281 336 C1282.32 335.67 1283.64 335.34 1285 335 C1283.68 332.36 1282.36 329.72 1281 327 C1281.66 327 1282.32 327 1283 327 C1284.551 324.536 1285.03 323.319 1284.75 320.375 C1284 318 1284 318 1282 316 C1279.398 315.805 1279.398 315.805 1276.375 315.875 C1274.601 315.916 1272.828 315.957 1271 316 Z M1288 316 C1288 322.6 1288 329.2 1288 336 C1291.63 336 1295.26 336 1299 336 C1299 335.01 1299 334.02 1299 333 C1296.69 333 1294.38 333 1292 333 C1292 331.02 1292 329.04 1292 327 C1293.98 327 1295.96 327 1298 327 C1298 326.01 1298 325.02 1298 324 C1296.02 324 1294.04 324 1292 324 C1292 322.35 1292 320.7 1292 319 C1294.31 319 1296.62 319 1299 319 C1299 318.01 1299 317.02 1299 316 C1295.37 316 1291.74 316 1288 316 Z M1302 316 C1301.973 319.146 1301.953 322.292 1301.938 325.438 C1301.929 326.335 1301.921 327.233 1301.912 328.158 C1301.909 329.012 1301.906 329.866 1301.902 330.746 C1301.897 331.537 1301.892 332.328 1301.886 333.142 C1302 335 1302 335 1303 336 C1304.686 336.072 1306.375 336.084 1308.062 336.062 C1308.982 336.053 1309.901 336.044 1310.848 336.035 C1311.558 336.024 1312.268 336.012 1313 336 C1313 335.01 1313 334.02 1313 333 C1310.69 333 1308.38 333 1306 333 C1306 331.02 1306 329.04 1306 327 C1307.98 327 1309.96 327 1312 327 C1312 326.01 1312 325.02 1312 324 C1310.02 324 1308.04 324 1306 324 C1306 322.35 1306 320.7 1306 319 C1308.31 319 1310.62 319 1313 319 C1313 318.01 1313 317.02 1313 316 C1309.37 316 1305.74 316 1302 316 Z M1317 316 C1317 322.6 1317 329.2 1317 336 C1317.99 336 1318.98 336 1320 336 C1320 333.36 1320 330.72 1320 328 C1320.99 328 1321.98 328 1323 328 C1323.309 328.949 1323.619 329.897 1323.938 330.875 C1325 334 1325 334 1326 336 C1327.32 336 1328.64 336 1330 336 C1329.01 333.03 1328.02 330.06 1327 327 C1327.66 327 1328.32 327 1329 327 C1330.551 324.536 1331.03 323.319 1330.75 320.375 C1330 318 1330 318 1328 316 C1325.398 315.805 1325.398 315.805 1322.375 315.875 C1320.601 315.916 1318.828 315.957 1317 316 Z M1341 316 C1341 322.6 1341 329.2 1341 336 C1341.99 336 1342.98 336 1344 336 C1344.33 332.7 1344.66 329.4 1345 326 C1346.32 329.3 1347.64 332.6 1349 336 C1350.32 335.67 1351.64 335.34 1353 335 C1354.75 331.438 1354.75 331.438 1356 328 C1356.33 330.64 1356.66 333.28 1357 336 C1358.32 336 1359.64 336 1361 336 C1361 329.4 1361 322.8 1361 316 C1359.35 316.33 1357.7 316.66 1356 317 C1354.637 319.18 1354.637 319.18 1353.688 321.875 C1353.361 322.759 1353.035 323.644 1352.699 324.555 C1352 327 1352 327 1352 330 C1351.34 330 1350.68 330 1350 330 C1349.807 329.325 1349.613 328.649 1349.414 327.953 C1349.154 327.061 1348.893 326.169 1348.625 325.25 C1348.37 324.368 1348.115 323.487 1347.852 322.578 C1347.079 320.239 1346.164 318.166 1345 316 C1343.68 316 1342.36 316 1341 316 Z M1365 316 C1365 322.6 1365 329.2 1365 336 C1368.63 336 1372.26 336 1376 336 C1376 335.01 1376 334.02 1376 333 C1373.69 332.67 1371.38 332.34 1369 332 C1368.67 330.35 1368.34 328.7 1368 327 C1370.31 327 1372.62 327 1375 327 C1375 326.01 1375 325.02 1375 324 C1372.69 324 1370.38 324 1368 324 C1368 322.35 1368 320.7 1368 319 C1370.64 319 1373.28 319 1376 319 C1376 318.01 1376 317.02 1376 316 C1372.37 316 1368.74 316 1365 316 Z M1379 316 C1379 322.6 1379 329.2 1379 336 C1380.32 336 1381.64 336 1383 336 C1383.33 332.37 1383.66 328.74 1384 325 C1384.459 325.794 1384.918 326.588 1385.391 327.406 C1385.697 327.917 1385.697 327.917 1387.25 330.5 C1387.853 331.521 1388.457 332.542 1389.078 333.594 C1389.712 334.388 1390.347 335.182 1391 336 C1392.32 336 1393.64 336 1395 336 C1395 329.4 1395 322.8 1395 316 C1394.01 316 1393.02 316 1392 316 C1391.67 319.96 1391.34 323.92 1391 328 C1390.553 327.218 1390.105 326.435 1389.645 325.629 C1389.342 325.123 1389.342 325.123 1387.812 322.562 C1387.221 321.553 1386.629 320.544 1386.02 319.504 C1384 317 1384 317 1379 316 Z M1416 318 C1413.556 320.444 1413.243 322.44 1412.922 325.828 C1413.034 328.934 1413.799 331.055 1415.492 333.648 C1417.98 335.878 1420.539 335.995 1423.781 336.223 C1426.288 335.971 1427.859 335.308 1430 334 C1432.703 330.487 1432.522 326.238 1432 322 C1430.938 319.125 1430.938 319.125 1429 317 C1423.622 314.565 1420.918 314.798 1416 318 Z M1435 316 C1435 322.6 1435 329.2 1435 336 C1436.32 336 1437.64 336 1439 336 C1439 333.36 1439 330.72 1439 328 C1440.999 329.808 1442.149 331.278 1443.438 333.688 C1443.953 334.451 1444.469 335.214 1445 336 C1446.32 336 1447.64 336 1449 336 C1447.801 332.917 1446.523 329.937 1445 327 C1446.32 326.34 1447.64 325.68 1449 325 C1449.365 319.532 1449.365 319.532 1447.844 317.312 C1445.27 315.48 1443.435 315.702 1440.312 315.812 C1438.559 315.874 1436.806 315.936 1435 316 Z " fill="#000000" transform="translate(0,0)"/>
<path d="M0 0 C4.935 1.021 7.536 2.779 10.625 6.75 C18.056 20.77 18.461 36.987 14.727 52.223 C8.856 71.021 -1.751 91.409 -17.375 103.75 C-18.563 20.829 -18.563 20.829 -6.062 3 C-3.375 0.75 -3.375 0.75 0 0 Z " fill="#000000" transform="translate(1366.375,76.25)"/>
<path d="M0 0 C9.206 8.848 10.261 22.488 10.707 34.477 C11.121 56.017 1.942 79.307 -12.988 94.875 C-13.196 95.071 -13.196 95.071 -14.25 96.062 C-17.92 94.839 -18.411 93.382 -20.105 90.049 C-20.441 89.352 -20.778 88.655 -21.125 87.938 C-21.477 87.218 -21.828 86.498 -22.19 85.756 C-31.986 65.197 -37.464 40.373 -31.289 17.895 C-28.01 8.958 -22.994 2.539 -14.875 -2.375 C-9.362 -3.556 -4.838 -2.884 0 0 Z " fill="#000000" transform="translate(775.25,91.9375)"/>
<path d="M0 0 C8.79 8.424 10.653 21.944 11 33.5 C10.728 55.101 2.92 78.371 -12.25 94.062 C-14.492 95.34 -14.492 95.34 -16.25 96.062 C-28.28 73.102 -38.793 46.763 -32.062 20.355 C-28.483 10.253 -23.989 3.209 -14.812 -2.438 C-9.306 -3.512 -4.822 -2.874 0 0 Z " fill="#000000" transform="translate(1291.25,91.9375)"/>
<path d="M0 0 C0 3.651 -1.045 5.101 -2.938 8.188 C-3.483 9.089 -4.028 9.99 -4.59 10.918 C-5.055 11.605 -5.521 12.292 -6 13 C-6.33 13 -6.66 13 -7 13 C-7.438 9.875 -7.438 9.875 -7 6 C-4.934 3.613 -2.584 1.8 0 0 Z " fill="#000000" transform="translate(1356,180)"/>
<path d="M0 0 C-0.625 2.438 -0.625 2.438 -2 5 C-5 5.938 -5 5.938 -8 6 C-8.66 5.34 -9.32 4.68 -10 4 C-4.77 -1.59 -4.77 -1.59 0 0 Z " fill="#000000" transform="translate(1319,183)"/>
<path d="M0 0 C1.938 0.938 1.938 0.938 4 3 C5.962 9.235 4.913 15.243 2 21 C0.527 22.777 0.527 22.777 -1 24 C-3.188 23.688 -3.188 23.688 -5 23 C-7.402 16.863 -6.92 12.269 -5 6 C-2.73 1.365 -2.73 1.365 0 0 Z " fill="#000000" transform="translate(1037,183)"/>
<path d="M0 0 C3.312 2.311 5.734 4.661 8 8 C6.51 11.813 4.413 13.419 1.062 15.688 C0.187 16.289 -0.688 16.891 -1.59 17.512 C-5.804 20.114 -9.137 20.092 -14 20 C-16.629 15.524 -16.086 11.935 -15 7 C-13.47 3.8 -11.731 1.276 -9 -1 C-5.135 -2.288 -3.714 -1.56 0 0 Z " fill="#000000" transform="translate(744,186)"/>
<path d="M0 0 C4.279 2.181 8.101 4.912 11.188 8.625 C11.188 9.945 11.188 11.265 11.188 12.625 C9.015 14.445 7.01 15.892 4.625 17.375 C4.016 17.786 3.407 18.197 2.779 18.621 C-1.515 21.357 -4.597 22.212 -9.812 21.625 C-11.812 20.188 -11.812 20.188 -12.812 17.625 C-13.073 11.645 -11.759 7.229 -7.812 2.625 C-4.935 0.202 -3.752 -0.5 0 0 Z " fill="#000000" transform="translate(1256.8125,184.375)"/>
<path d="M0 0 C0.99 0 1.98 0 3 0 C3 2.64 3 5.28 3 8 C1.125 8.625 1.125 8.625 -1 9 C-1.66 8.34 -2.32 7.68 -3 7 C-2.67 3.703 -2.377 2.377 0 0 Z " fill="#000000" transform="translate(1008,203)"/>
<path d="M0 0 C-7.891 6.939 -15.855 12.762 -25 18 C-26.043 18.603 -27.086 19.207 -28.16 19.828 C-35.558 24 -35.558 24 -39 24 C-39.081 22.397 -39.139 20.792 -39.188 19.188 C-39.222 18.294 -39.257 17.401 -39.293 16.48 C-38.935 13.45 -38.305 12.917 -36 11 C-33.922 9.989 -33.922 9.989 -31.535 9.098 C-30.658 8.766 -29.78 8.435 -28.876 8.094 C-27.948 7.753 -27.019 7.413 -26.062 7.062 C-25.118 6.711 -24.174 6.36 -23.202 5.998 C-20.472 4.988 -17.737 3.992 -15 3 C-14.303 2.744 -13.607 2.489 -12.889 2.226 C-3.549 -1.183 -3.549 -1.183 0 0 Z " fill="#000000" transform="translate(500,241)"/>
<path d="M0 0 C-0.06 1.938 -0.149 3.876 -0.25 5.812 C-0.273 6.352 -0.273 6.352 -0.391 9.082 C-1 12 -1 12 -2.719 13.754 C-9.358 17.381 -16.451 19.588 -24 20 C-24.66 19.67 -25.32 19.34 -26 19 C-24.085 11.765 -17.694 8.302 -11.651 4.728 C-11.338 4.546 -11.338 4.546 -9.75 3.625 C-9.135 3.267 -8.521 2.909 -7.888 2.54 C-5.046 0.941 -3.314 0 0 0 Z " fill="#000000" transform="translate(454,258)"/>
<path d="M0 0 C2.938 0.875 2.938 0.875 4.375 2.562 C5.132 5.673 4.788 7.801 3.938 10.875 C2.75 12.812 2.75 12.812 0.938 13.875 C-2.125 13.812 -2.125 13.812 -5.062 12.875 C-7.351 10.288 -7.055 8.723 -6.875 5.25 C-5.808 0.816 -4.577 -0.187 0 0 Z " fill="#000000" transform="translate(447.0625,319.125)"/>
<path d="M0 0 C1.98 0 3.96 0 6 0 C6.33 0.99 6.66 1.98 7 3 C6.67 3.66 6.34 4.32 6 5 C4.02 5 2.04 5 0 5 C0 3.35 0 1.7 0 0 Z " fill="#000000" transform="translate(462,319)"/>
<path d="M0 0 C1.65 0 3.3 0 5 0 C5.382 1.656 5.714 3.325 6 5 C5 6 5 6 2.438 6.062 C2.035 6.052 2.035 6.052 0 6 C0 4.02 0 2.04 0 0 Z " fill="#000000" transform="translate(578,319)"/>
<path d="M0 0 C3.5 0.125 3.5 0.125 7 1 C8.5 2.688 8.5 2.688 9 5 C8.807 8.151 8.469 10.274 6.75 12.938 C5 14 5 14 2.5 13.938 C-0.61 12.771 -1.575 12.008 -3 9 C-2.673 2.673 -2.673 2.673 0 0 Z " fill="#000000" transform="translate(597,319)"/>
<path d="M0 0 C6.523 0.483 6.523 0.483 8.5 2.625 C9.214 6.017 8.807 8.648 8 12 C5 14 5 14 0 14 C0 9.38 0 4.76 0 0 Z " fill="#000000" transform="translate(900,319)"/>
<path d="M0 0 C1.65 0 3.3 0 5 0 C6.062 1.875 6.062 1.875 7 4 C6.67 4.66 6.34 5.32 6 6 C4.02 6 2.04 6 0 6 C0 4.02 0 2.04 0 0 Z " fill="#000000" transform="translate(933,319)"/>
<path d="M0 0 C2.5 0.438 2.5 0.438 4.312 1.438 C6.213 4.638 6.042 7.817 5.5 11.438 C4.375 13.5 4.375 13.5 2.5 14.438 C-0.562 14.312 -0.562 14.312 -3.5 13.438 C-5.826 9.949 -5.919 8.54 -5.5 4.438 C-3.999 1.436 -3.336 0.584 0 0 Z " fill="#000000" transform="translate(1045.5,318.5625)"/>
<path d="M0 0 C1.65 0 3.3 0 5 0 C5.382 1.656 5.714 3.325 6 5 C5 6 5 6 2.438 6.062 C2.035 6.052 2.035 6.052 0 6 C0 4.02 0 2.04 0 0 Z " fill="#000000" transform="translate(1115,319)"/>
<path d="M0 0 C1.65 0 3.3 0 5 0 C5.382 1.656 5.714 3.325 6 5 C5 6 5 6 2.438 6.062 C2.035 6.052 2.035 6.052 0 6 C0 4.02 0 2.04 0 0 Z " fill="#000000" transform="translate(1197,319)"/>
<path d="M0 0 C1.65 0 3.3 0 5 0 C5.382 1.656 5.714 3.325 6 5 C5 6 5 6 2.438 6.062 C2.035 6.052 2.035 6.052 0 6 C0 4.02 0 2.04 0 0 Z " fill="#000000" transform="translate(1275,319)"/>
<path d="M0 0 C0.402 0.01 0.402 0.01 2.438 0.062 C2.82 1.719 3.151 3.387 3.438 5.062 C2.438 6.062 2.438 6.062 -0.625 6.125 C-1.11 6.115 -1.11 6.115 -3.562 6.062 C-3.605 4.396 -3.603 2.729 -3.562 1.062 C-2.562 0.062 -2.562 0.062 0 0 Z " fill="#000000" transform="translate(1323.5625,318.9375)"/>
<path d="M0 0 C1.594 3.187 1.382 6.531 1 10 C-0.125 12.062 -0.125 12.062 -2 13 C-5.188 12.688 -5.188 12.688 -8 12 C-10.2 5.767 -10.2 5.767 -9.25 2.125 C-6.835 -1.98 -4.23 -0.99 0 0 Z " fill="#000000" transform="translate(1427,320)"/>
<path d="M0 0 C1.65 0 3.3 0 5 0 C5.382 1.656 5.714 3.325 6 5 C5 6 5 6 2.438 6.062 C2.035 6.052 2.035 6.052 0 6 C0 4.02 0 2.04 0 0 Z " fill="#000000" transform="translate(1439,319)"/>
<path d="M0 0 C1.414 2.639 2.372 5.071 3 8 C1.35 8 -0.3 8 -2 8 C-1.125 1.125 -1.125 1.125 0 0 Z " fill="#000000" transform="translate(483,321)"/>
<path d="M0 0 C1.414 2.639 2.372 5.071 3 8 C1.02 8 -0.96 8 -3 8 C-2.01 5.36 -1.02 2.72 0 0 Z " fill="#000000" transform="translate(713,321)"/>
<path d="M0 0 C0.66 0.33 1.32 0.66 2 1 C2.407 3.322 2.744 5.657 3 8 C1.35 8 -0.3 8 -2 8 C-1.34 5.36 -0.68 2.72 0 0 Z " fill="#000000" transform="translate(884,321)"/>
<path d="M0 0 C1.945 2.918 2.453 4.625 3 8 C1.35 8 -0.3 8 -2 8 C-1.125 2.25 -1.125 2.25 0 0 Z " fill="#000000" transform="translate(1149,321)"/>
<path d="M0 0 C1.945 2.918 2.453 4.625 3 8 C1.35 8 -0.3 8 -2 8 C-1.125 2.25 -1.125 2.25 0 0 Z " fill="#000000" transform="translate(1259,321)"/>
<path d="M0 0 C0.66 0 1.32 0 2 0 C2.66 2.31 3.32 4.62 4 7 C2.02 7 0.04 7 -2 7 C-1.34 4.69 -0.68 2.38 0 0 Z " fill="#000000" transform="translate(784,322)"/>
<path d="M0 0 C1.98 0 3.96 0 6 0 C6.382 1.656 6.714 3.325 7 5 C6 6 6 6 2.938 6.062 C2.453 6.052 2.453 6.052 0 6 C0 4.02 0 2.04 0 0 Z " fill="#000000" transform="translate(462,327)"/>
</svg>
