<?xml version="1.0" standalone="no"?>
<!DOCTYPE svg PUBLIC "-//W3C//DTD SVG 20010904//EN"
 "http://www.w3.org/TR/2001/REC-SVG-20010904/DTD/svg10.dtd">
<svg version="1.0" xmlns="http://www.w3.org/2000/svg"
 width="738.000000pt" height="372.000000pt" viewBox="0 0 738.000000 372.000000"
 preserveAspectRatio="xMidYMid meet">

<g transform="translate(0.000000,372.000000) scale(0.100000,-0.100000)"
fill="#000000" stroke="none">
<path d="M5210 3360 c8 -5 20 -10 25 -10 6 0 3 5 -5 10 -8 5 -19 10 -25 10 -5
0 -3 -5 5 -10z"/>
<path d="M5036 3327 c3 -10 9 -15 12 -12 3 3 0 11 -7 18 -10 9 -11 8 -5 -6z"/>
<path d="M5196 3332 c-2 -4 4 -9 15 -9 10 -1 19 2 19 8 0 11 -27 12 -34 1z"/>
<path d="M5244 3325 c4 -24 16 -30 16 -7 0 12 -4 22 -9 22 -5 0 -8 -7 -7 -15z"/>
<path d="M5170 3311 c0 -5 7 -11 15 -15 8 -3 15 -1 15 3 0 5 -7 11 -15 15 -8
3 -15 1 -15 -3z"/>
<path d="M5328 3313 c7 -3 16 -2 19 1 4 3 -2 6 -13 5 -11 0 -14 -3 -6 -6z"/>
<path d="M5378 3313 c6 -2 18 -2 25 0 6 3 1 5 -13 5 -14 0 -19 -2 -12 -5z"/>
<path d="M5060 3300 c0 -5 7 -7 15 -4 8 4 15 8 15 10 0 2 -7 4 -15 4 -8 0 -15
-4 -15 -10z"/>
<path d="M5288 3293 c7 -3 16 -2 19 1 4 3 -2 6 -13 5 -11 0 -14 -3 -6 -6z"/>
<path d="M5390 3290 c-23 -7 -24 -8 -6 -15 13 -6 21 -4 24 3 2 7 8 12 14 12 6
0 8 -6 5 -14 -3 -7 -1 -18 5 -24 8 -8 5 -9 -11 -5 -16 4 -21 1 -21 -16 0 -11
9 -26 20 -33 23 -14 26 -34 8 -42 -10 -5 -10 -7 0 -12 6 -3 12 -19 12 -35 0
-22 -4 -27 -17 -23 -17 5 -17 5 -1 -6 13 -8 16 -19 12 -43 -4 -22 -3 -28 4
-18 14 20 34 3 26 -22 -5 -18 -4 -20 7 -9 7 6 22 12 34 12 15 0 17 -2 6 -9
-18 -11 -5 -52 14 -44 8 3 18 -2 21 -11 3 -9 17 -16 31 -16 23 0 24 -3 21 -52
-2 -30 -8 -53 -15 -56 -7 -2 -13 3 -13 12 0 9 5 16 11 16 14 0 7 52 -7 57 -15
5 -23 -61 -10 -84 5 -10 17 -24 25 -31 12 -10 13 -15 4 -18 -16 -7 -17 -84 -2
-84 9 0 9 -4 0 -14 -6 -7 -14 -41 -17 -75 -6 -55 -5 -64 15 -82 18 -17 35 -20
96 -20 59 0 75 -3 75 -14 0 -9 10 -15 25 -15 14 0 25 5 25 10 0 6 7 10 15 10
21 0 19 -16 -2 -25 -17 -6 -17 -7 0 -16 9 -6 25 -9 35 -8 32 3 43 -1 36 -13
-4 -6 1 -17 11 -25 11 -7 13 -13 7 -13 -20 0 -13 -17 9 -23 16 -4 20 -11 16
-26 -4 -18 -2 -20 19 -15 26 7 31 -5 12 -24 -9 -9 -9 -12 3 -12 10 0 15 -9 15
-22 -1 -14 5 -23 14 -23 10 0 14 8 13 23 -3 26 12 29 26 4 6 -12 5 -25 -4 -42
-11 -21 -10 -27 8 -52 15 -20 23 -25 29 -16 4 7 5 -4 2 -24 -6 -32 -4 -36 12
-32 13 3 29 -6 48 -25 17 -17 25 -31 20 -31 -7 0 -7 -15 0 -45 14 -58 26 -58
26 2 0 25 2 44 4 42 8 -8 9 -93 2 -120 -7 -23 -4 -27 21 -32 16 -3 31 0 35 6
4 7 8 8 8 2 0 -5 7 -1 15 9 15 19 15 19 15 -2 0 -12 6 -22 14 -22 19 0 27 25
13 39 -9 9 -7 16 11 29 19 15 21 22 14 42 -10 25 8 57 22 43 6 -6 35 25 36 39
0 3 -10 3 -22 0 -22 -5 -22 -5 -7 19 14 20 25 24 65 24 29 0 49 5 51 13 7 18
33 15 33 -4 0 -11 6 -14 20 -9 11 3 28 2 37 -4 10 -6 12 -11 6 -11 -7 0 -13
-4 -13 -9 0 -14 32 -23 43 -12 10 10 36 -13 37 -33 0 -6 -7 -1 -15 10 -21 27
-18 0 3 -36 19 -31 32 -30 32 2 0 10 5 18 10 18 6 0 10 -7 10 -16 0 -12 7 -14
31 -9 17 4 42 2 57 -3 15 -6 43 -13 62 -16 l35 -6 -30 23 c-16 12 -38 30 -47
40 -23 22 -24 73 -1 81 14 6 15 9 4 16 -11 6 -9 11 8 21 11 8 21 18 21 23 0 6
-5 5 -12 -2 -7 -7 -23 -12 -37 -11 -25 0 -26 0 -4 9 21 8 27 22 35 75 5 28 31
25 39 -5 6 -20 7 -21 8 -5 0 23 -21 55 -38 55 -6 0 -11 5 -11 11 0 16 -60 72
-68 64 -3 -3 7 -17 23 -30 25 -20 27 -24 11 -25 -21 0 -67 45 -65 63 4 30 -2
38 -21 32 -18 -6 -20 -3 -15 18 5 20 2 26 -19 31 -14 3 -27 16 -31 29 -3 12
-12 33 -18 46 -10 21 -8 26 18 47 28 22 31 23 43 7 19 -26 15 4 -5 38 -10 16
-29 31 -45 34 -15 4 -28 11 -28 16 0 6 10 5 23 -2 21 -11 21 -11 -2 15 -21 22
-26 24 -34 11 -4 -8 -5 -20 -1 -26 4 -7 -2 -6 -17 1 -21 12 -21 14 -6 25 21
15 22 25 2 25 -8 0 -15 5 -15 11 0 6 -6 17 -14 24 -12 12 -16 12 -25 1 -6 -7
-10 -15 -8 -17 1 -3 -5 3 -15 13 -9 10 -21 18 -27 18 -6 0 -11 5 -11 10 0 13
27 13 35 0 4 -6 11 -8 16 -4 6 3 -2 12 -17 20 -24 13 -29 12 -45 -2 -16 -14
-18 -14 -24 7 -4 13 -14 29 -22 37 -12 13 -16 12 -28 -4 -8 -11 -15 -23 -15
-29 0 -5 -4 -4 -9 3 -11 17 -2 62 13 62 6 0 2 7 -8 15 -11 8 -16 15 -11 15 5
0 -4 14 -20 30 -22 23 -25 30 -12 30 9 0 17 4 17 9 0 18 -19 22 -42 10 l-23
-11 23 21 c19 19 20 24 8 37 -19 18 -46 18 -46 -1 0 -17 -16 -20 -25 -5 -3 6
1 13 9 16 22 8 20 27 -3 39 -82 43 -119 58 -136 56 -15 -1 -17 0 -6 7 10 7 10
11 1 17 -7 4 -15 2 -19 -4 -4 -6 -15 -9 -24 -5 -9 3 -14 11 -10 17 4 6 -1 8
-14 5 -11 -3 -31 1 -44 8 -33 18 -49 17 -49 -3 0 -11 -3 -14 -8 -7 -4 6 -18
15 -32 20 l-25 8 30 6 30 6 -37 5 c-32 4 -38 2 -38 -13 0 -11 -7 -18 -20 -18
-13 0 -20 7 -20 20 0 11 -4 20 -10 20 -5 0 -10 -4 -10 -10 0 -15 -36 -12 -50
5 -7 8 -26 15 -42 15 -16 0 -38 5 -49 10 -13 7 -19 7 -19 0 0 -5 -7 -10 -15
-10 -8 0 -15 -4 -15 -9 0 -5 7 -11 15 -15 9 -3 15 0 15 9 0 17 9 19 29 6 9 -6
10 -11 2 -15 -20 -12 -12 -25 24 -40 19 -8 35 -17 35 -20 0 -4 -16 -6 -35 -6
-25 0 -35 4 -35 16 0 13 -8 15 -50 9 l-50 -7 0 37 c0 31 -3 35 -19 30 -22 -7
-53 4 -45 16 3 5 0 9 -5 9 -6 0 -11 3 -11 8 0 4 23 8 50 8 46 2 67 -9 38 -18
-15 -5 -1 -28 17 -28 9 0 12 6 9 15 -4 10 0 15 12 15 18 1 18 1 0 15 -21 16
-131 19 -176 5z m300 -80 c6 -12 21 -20 35 -20 15 0 25 -6 25 -14 0 -12 -6
-12 -32 -3 -54 20 -89 57 -53 57 8 0 19 -9 25 -20z m167 -26 c-3 -3 -12 -4
-19 -1 -8 3 -5 6 6 6 11 1 17 -2 13 -5z m140 -28 c10 -10 -71 -7 -87 4 -10 7
-1 9 33 6 26 -2 51 -6 54 -10z m-457 -36 c0 -22 -4 -40 -10 -40 -5 0 -10 18
-10 40 0 22 5 40 10 40 6 0 10 -18 10 -40z m608 -28 c-10 -2 -25 4 -34 12 -8
9 -20 16 -25 16 -5 0 -9 5 -9 10 0 6 19 0 43 -12 30 -16 37 -23 25 -26z m-40
-8 c2 -1 -4 -4 -12 -7 -8 -3 -16 2 -19 14 -5 17 -3 18 11 7 9 -7 18 -13 20
-14z m-588 -54 c0 -17 -19 -11 -30 9 -17 33 -11 46 10 23 11 -12 20 -26 20
-32z m80 -46 c0 -9 -5 -14 -12 -12 -18 6 -21 28 -4 28 9 0 16 -7 16 -16z
m1018 -351 c3 -18 -2 -23 -17 -23 -12 0 -21 5 -21 10 0 6 7 10 15 10 8 0 15 5
15 10 0 14 -23 13 -38 -2 -9 -9 -12 -8 -12 6 0 28 54 18 58 -11z m-18 -129 c0
-8 -4 -12 -10 -9 -5 3 -10 10 -10 16 0 5 5 9 10 9 6 0 10 -7 10 -16z m47 -116
c-3 -8 -6 -5 -6 6 -1 11 2 17 5 13 3 -3 4 -12 1 -19z m28 -18 c3 -5 -1 -10
-10 -10 -9 0 -13 5 -10 10 3 6 8 10 10 10 2 0 7 -4 10 -10z m120 -79 c-3 -2
-21 -5 -42 -7 -22 -1 -32 1 -24 6 8 4 11 12 8 17 -4 6 8 5 28 -1 19 -6 32 -12
30 -15z m-105 -1 c0 -5 -7 -10 -15 -10 -8 0 -15 5 -15 10 0 6 7 10 15 10 8 0
15 -4 15 -10z m-130 -106 c0 -14 -3 -14 -15 -4 -8 7 -15 14 -15 16 0 2 7 4 15
4 8 0 15 -7 15 -16z m200 -37 c0 -1 -4 -18 -10 -36 -7 -24 -6 -39 2 -48 6 -7
7 -17 3 -21 -4 -4 -10 -1 -13 7 -4 11 -6 11 -14 0 -7 -10 -8 -1 -4 26 3 22 6
48 6 58 0 9 7 17 15 17 8 0 15 -1 15 -3z m-606 -43 c5 -14 4 -15 -9 -4 -17 14
-19 20 -6 20 5 0 12 -7 15 -16z m486 6 c0 -5 -2 -10 -4 -10 -3 0 -8 5 -11 10
-3 6 -1 10 4 10 6 0 11 -4 11 -10z m-318 -72 c-8 -8 -9 -4 -5 13 4 13 8 18 11
10 2 -7 -1 -18 -6 -23z m-22 -44 c0 -8 -4 -14 -10 -14 -5 0 -10 9 -10 21 0 11
5 17 10 14 6 -3 10 -13 10 -21z m-60 -54 c0 -5 -2 -10 -4 -10 -3 0 -8 5 -11
10 -3 6 -1 10 4 10 6 0 11 -4 11 -10z"/>
<path d="M5210 3280 c0 -5 5 -10 10 -10 6 0 10 5 10 10 0 6 -4 10 -10 10 -5 0
-10 -4 -10 -10z"/>
<path d="M5275 3260 c-3 -6 1 -7 9 -4 18 7 21 14 7 14 -6 0 -13 -4 -16 -10z"/>
<path d="M5260 3191 c0 -6 5 -13 10 -16 6 -3 10 1 10 9 0 9 -4 16 -10 16 -5 0
-10 -4 -10 -9z"/>
<path d="M5361 3144 c0 -11 3 -14 6 -6 3 7 2 16 -1 19 -3 4 -6 -2 -5 -13z"/>
<path d="M5552 2706 c-2 -52 0 -57 13 -46 9 8 12 16 6 19 -5 4 -11 24 -14 46
-3 32 -4 28 -5 -19z"/>
<path d="M5500 2569 c0 -16 -5 -20 -20 -16 -13 3 -20 0 -20 -10 0 -9 6 -13 15
-9 9 3 19 -3 25 -15 6 -11 15 -17 21 -14 6 4 6 13 0 24 -6 10 -7 27 -4 39 3
13 1 22 -6 22 -6 0 -11 -10 -11 -21z"/>
<path d="M6620 2581 c0 -5 7 -11 15 -15 9 -3 15 0 15 9 0 8 -7 15 -15 15 -8 0
-15 -4 -15 -9z"/>
<path d="M6660 2557 c0 -8 6 -14 14 -14 8 0 12 6 9 14 -3 7 -9 13 -14 13 -5 0
-9 -6 -9 -13z"/>
<path d="M6810 2250 c0 -19 3 -21 12 -12 9 9 9 15 0 24 -9 9 -12 7 -12 -12z"/>
<path d="M6831 2214 c0 -11 3 -14 6 -6 3 7 2 16 -1 19 -3 4 -6 -2 -5 -13z"/>
<path d="M6844 2186 c-3 -9 -12 -16 -20 -16 -8 0 -14 -9 -14 -21 0 -18 3 -17
26 11 15 17 24 34 20 37 -3 3 -8 -2 -12 -11z"/>
<path d="M3385 2139 c-140 -21 -222 -74 -245 -159 -17 -62 -9 -216 13 -257 32
-61 110 -113 212 -143 23 -7 158 -15 315 -19 356 -10 374 -16 368 -132 -3 -59
-5 -64 -35 -81 -50 -30 -189 -39 -523 -36 -170 2 -310 1 -310 -2 0 -3 58 -40
128 -83 l127 -78 300 3 c276 4 305 6 357 25 129 48 157 93 158 251 0 66 -5
114 -14 135 -29 69 -131 134 -247 158 -30 6 -146 13 -259 15 -363 6 -400 17
-400 124 0 55 14 78 58 98 32 15 92 18 422 22 l385 5 -30 19 c-16 11 -66 43
-110 72 -44 28 -90 57 -102 63 -26 13 -476 13 -568 0z"/>
<path d="M4180 2145 c0 -2 21 -17 48 -32 26 -15 85 -51 131 -80 l85 -53 375
-1 c400 0 457 -4 499 -36 26 -20 27 -23 27 -124 l0 -103 -35 -20 c-34 -20 -52
-21 -502 -24 l-468 -3 0 -248 c0 -291 -3 -283 99 -285 94 -2 95 2 99 199 l3
165 135 0 135 0 280 -175 280 -175 62 0 c83 0 111 15 115 61 4 45 -4 52 -211
179 -92 56 -166 105 -163 107 2 3 39 9 81 14 143 18 238 67 274 143 18 36 21
62 21 169 0 69 -4 137 -9 150 -16 41 -71 97 -121 122 -100 51 -156 55 -720 55
-286 0 -520 -2 -520 -5z"/>
<path d="M2274 2130 c-123 -18 -214 -70 -261 -147 -23 -38 -23 -42 -23 -342
l0 -304 25 -42 c29 -50 95 -95 182 -124 58 -20 84 -21 515 -21 249 -1 454 2
456 6 6 12 -232 154 -258 154 -245 -2 -612 10 -642 20 -80 28 -78 18 -78 319
l0 269 24 15 c44 29 148 37 502 37 327 0 352 1 367 18 23 26 22 94 -2 123
l-19 24 -369 1 c-202 1 -391 -2 -419 -6z"/>
<path d="M6730 1980 c8 -5 16 -14 16 -20 3 -23 5 -25 12 -13 5 8 21 5 57 -13
28 -13 52 -19 53 -14 2 6 10 10 18 10 19 0 18 19 -1 26 -8 4 -12 11 -8 17 4 6
-2 8 -15 5 -12 -4 -25 -2 -28 3 -4 6 -11 6 -19 -1 -9 -8 -15 -8 -20 0 -3 5
-23 10 -43 10 -27 0 -33 -3 -22 -10z m121 -37 c13 -15 12 -15 -11 -3 -34 17
-36 20 -18 20 9 0 22 -7 29 -17z"/>
<path d="M6237 1873 c-12 -11 -8 -20 18 -37 24 -16 25 -16 21 6 -3 13 -5 26
-5 31 -1 9 -25 9 -34 0z"/>
<path d="M6310 1850 c-12 -7 -12 -12 -2 -22 17 -17 15 -31 -3 -24 -19 7 -20
-18 -1 -33 10 -8 16 -9 21 -1 3 5 1 10 -6 10 -7 0 -9 3 -5 8 4 4 13 7 19 7 5
0 12 6 15 13 2 6 -3 12 -12 12 -9 0 -16 8 -16 18 0 14 2 15 10 2 6 -9 10 -10
10 -3 0 17 -14 23 -30 13z"/>
<path d="M7060 1770 c0 -5 5 -10 10 -10 6 0 10 5 10 10 0 6 -4 10 -10 10 -5 0
-10 -4 -10 -10z"/>
<path d="M6865 1760 c3 -5 8 -10 11 -10 2 0 4 5 4 10 0 6 -5 10 -11 10 -5 0
-7 -4 -4 -10z"/>
<path d="M7080 1739 c0 -6 -6 -9 -14 -6 -9 4 -16 -3 -18 -18 -3 -16 -1 -22 8
-18 6 2 15 0 19 -6 3 -6 1 -11 -4 -11 -6 0 -11 -4 -11 -10 0 -12 11 -13 30 0
12 8 13 13 2 30 -7 12 -8 20 -2 20 5 0 10 7 10 15 0 8 -4 15 -10 15 -5 0 -10
-5 -10 -11z"/>
<path d="M6896 1665 c4 -8 13 -15 21 -15 13 0 13 3 3 15 -7 8 -16 15 -21 15
-5 0 -6 -7 -3 -15z"/>
<path d="M6920 1626 c8 -8 22 -16 30 -18 8 -2 20 -10 27 -18 11 -13 12 -13 13
2 0 11 -10 20 -25 24 -14 3 -25 10 -25 15 0 5 -8 9 -17 9 -15 0 -15 -2 -3 -14z"/>
<path d="M7293 1404 c4 -4 -2 -13 -13 -21 -23 -16 -27 -45 -6 -41 15 3 17 -6
8 -30 -3 -10 -7 -10 -12 -2 -10 16 -40 1 -40 -20 0 -17 -35 -65 -72 -99 -13
-11 -18 -31 -18 -74 0 -36 -4 -56 -10 -52 -6 4 -10 -6 -10 -22 0 -19 3 -24 9
-15 6 10 10 6 14 -14 3 -19 0 -32 -11 -41 -11 -8 -13 -12 -4 -13 7 0 20 10 30
22 51 66 82 89 104 83 13 -4 20 -4 16 0 -11 12 15 34 28 24 8 -7 13 -2 16 15
3 14 1 23 -3 20 -5 -3 -9 6 -9 21 0 14 -7 28 -15 31 -8 4 -15 16 -15 28 1 20
1 20 15 2 14 -19 15 -19 21 0 3 10 10 28 14 39 26 59 39 152 20 140 -6 -4 -8
-10 -5 -15 6 -9 -25 -19 -42 -13 -21 7 -14 22 7 16 15 -4 19 -2 14 10 -3 9
-13 18 -22 22 -9 3 -13 3 -9 -1z m-18 -143 l20 -24 -21 11 c-15 8 -24 8 -32 0
-9 -9 -12 -8 -12 6 0 9 5 14 10 11 6 -3 10 2 10 11 0 10 1 15 3 13 1 -2 11
-15 22 -28z m-25 -91 c0 -3 -11 -10 -25 -17 -14 -6 -25 -7 -25 -2 0 15 -20 10
-26 -6 -4 -8 -3 -31 0 -50 6 -32 9 -34 27 -24 11 5 25 8 32 5 7 -2 5 -5 -5 -5
-9 -1 -18 -5 -20 -10 -1 -4 -13 -12 -25 -15 -21 -7 -23 -4 -25 31 -3 81 -3 88
-2 93 3 7 94 7 94 0z m10 -60 c0 -11 -4 -20 -10 -20 -5 0 -10 9 -10 20 0 11 5
20 10 20 6 0 10 -9 10 -20z"/>
<path d="M1895 1290 c3 -5 8 -10 11 -10 2 0 4 5 4 10 0 6 -5 10 -11 10 -5 0
-7 -4 -4 -10z"/>
<path d="M1955 1290 c3 -5 8 -10 11 -10 2 0 4 5 4 10 0 6 -5 10 -11 10 -5 0
-7 -4 -4 -10z"/>
<path d="M1910 1250 c0 -5 5 -10 11 -10 5 0 7 5 4 10 -3 6 -8 10 -11 10 -2 0
-4 -4 -4 -10z"/>
<path d="M1970 1250 c0 -5 5 -10 10 -10 6 0 10 5 10 10 0 6 -4 10 -10 10 -5 0
-10 -4 -10 -10z"/>
<path d="M7338 1215 c-3 -14 -1 -25 3 -25 5 0 9 11 9 25 0 14 -2 25 -4 25 -2
0 -6 -11 -8 -25z"/>
<path d="M3399 1015 c-116 -37 -178 -184 -138 -329 14 -49 80 -122 126 -137
59 -19 164 -8 211 24 140 92 134 355 -10 428 -53 27 -131 33 -189 14z m161
-75 c61 -44 84 -175 44 -255 -42 -87 -150 -114 -218 -55 -97 85 -83 262 25
318 51 27 104 24 149 -8z"/>
<path d="M5407 1016 c-52 -19 -75 -42 -87 -87 -19 -70 21 -125 130 -179 88
-44 112 -88 70 -130 -25 -25 -113 -27 -167 -5 -46 19 -43 20 -43 -19 0 -29 4
-36 31 -45 44 -15 153 -14 193 3 48 20 76 61 76 110 0 63 -27 97 -111 140 -94
49 -109 63 -109 97 0 59 86 88 165 55 l35 -15 0 38 c0 37 -2 39 -37 45 -58 9
-104 6 -146 -8z"/>
<path d="M2110 780 l0 -240 35 0 35 0 0 100 0 100 36 0 c43 0 67 -23 129 -125
39 -64 45 -70 79 -73 23 -2 36 1 36 9 0 14 -100 167 -126 194 -15 14 -16 19
-5 23 30 10 72 59 80 92 9 43 -1 95 -24 120 -26 29 -78 40 -182 40 l-93 0 0
-240z m210 160 c29 -29 27 -84 -5 -115 -20 -21 -34 -25 -80 -25 l-55 0 0 80 0
80 60 0 c47 0 64 -4 80 -20z"/>
<path d="M2532 783 l3 -238 128 -3 127 -3 0 31 0 30 -95 0 -95 0 0 80 0 80 85
0 c84 0 85 0 85 25 0 24 -2 24 -82 27 l-83 3 -3 73 -3 72 91 0 90 0 0 30 0 30
-125 0 -125 0 2 -237z"/>
<path d="M2882 784 l3 -239 33 -3 32 -3 0 90 0 91 55 0 c67 0 110 17 149 58
36 39 46 109 23 164 -23 56 -62 71 -190 76 l-107 4 2 -238z m204 153 c21 -19
27 -32 27 -67 0 -62 -34 -90 -109 -90 l-54 0 0 90 0 90 54 0 c43 0 61 -5 82
-23z"/>
<path d="M3792 783 l3 -238 33 -3 32 -3 0 100 0 101 34 0 c46 0 68 -21 124
-115 44 -75 49 -80 85 -83 21 -2 37 1 37 7 0 17 -92 162 -121 190 l-25 25 30
17 c70 37 93 127 49 187 -28 38 -74 51 -186 51 l-97 1 2 -237z m208 157 c22
-22 26 -60 8 -93 -19 -36 -40 -46 -95 -47 l-53 0 0 80 0 80 60 0 c47 0 64 -4
80 -20z"/>
<path d="M4150 990 l0 -30 65 0 65 0 2 -207 3 -208 33 -3 32 -3 0 210 0 211
70 0 70 0 0 30 0 30 -170 0 -170 0 0 -30z"/>
<path d="M4562 783 l3 -238 130 0 130 0 3 28 3 27 -95 0 -96 0 0 80 0 80 80 0
c79 0 80 0 80 25 0 25 -1 25 -80 25 -46 0 -80 4 -81 10 0 6 0 35 0 65 0 30 0
59 0 65 1 5 40 11 88 12 l87 3 1 28 2 27 -129 0 -128 0 2 -237z"/>
<path d="M4919 813 c-1 -115 -2 -221 -3 -238 -1 -28 1 -30 34 -30 l35 0 3 98
3 97 32 0 c40 0 67 -27 123 -120 46 -77 49 -80 93 -80 24 0 32 4 28 14 -10 25
-99 161 -123 187 l-24 25 33 16 c44 21 71 77 64 130 -11 80 -63 108 -202 108
l-95 0 -1 -207z m202 128 c17 -13 23 -29 23 -56 0 -54 -38 -85 -105 -85 l-49
0 0 80 0 80 54 0 c38 0 61 -6 77 -19z"/>
</g>
</svg>
