<?xml version="1.0" standalone="no"?>
<!DOCTYPE svg PUBLIC "-//W3C//DTD SVG 20010904//EN"
 "http://www.w3.org/TR/2001/REC-SVG-20010904/DTD/svg10.dtd">
<svg version="1.0" xmlns="http://www.w3.org/2000/svg"
 width="738.000000pt" height="414.000000pt" viewBox="0 0 738.000000 414.000000"
 preserveAspectRatio="xMidYMid meet">

<g transform="translate(0.000000,414.000000) scale(0.100000,-0.100000)"
fill="#000000" stroke="none">
<path d="M5684 2496 c-26 -26 -34 -42 -34 -70 0 -52 23 -90 67 -111 33 -16 41
-16 77 -4 48 17 80 58 80 103 0 70 -47 116 -120 116 -28 0 -44 -8 -70 -34z"/>
<path d="M2404 2268 c-5 -7 -66 -147 -135 -311 -117 -274 -159 -354 -179 -342
-5 3 -2 24 5 47 6 24 15 55 19 71 10 42 -15 33 -46 -18 -38 -63 -73 -78 -195
-83 -57 -2 -114 -1 -128 2 l-25 6 0 145 0 145 88 -1 c115 0 154 -14 168 -59
23 -71 34 -46 34 75 0 87 -3 116 -12 113 -7 -3 -16 -18 -20 -35 -13 -50 -31
-57 -150 -62 l-109 -3 3 133 3 134 115 0 c151 0 167 -5 191 -60 11 -25 24 -45
29 -45 6 0 10 31 10 70 l0 69 -270 3 c-247 3 -319 -3 -240 -18 53 -11 55 -17
58 -278 4 -283 0 -320 -34 -343 -14 -8 -27 -13 -31 -9 -3 3 2 35 12 71 19 71
13 95 -14 55 -39 -60 -72 -88 -115 -99 -61 -15 -229 -14 -244 1 -9 9 -12 86
-12 283 0 302 0 300 66 321 34 10 21 12 -111 12 -129 0 -145 -1 -116 -12 61
-22 61 -23 61 -319 0 -162 -4 -276 -10 -287 -6 -11 -26 -22 -45 -26 -104 -19
17 -24 600 -24 417 0 635 3 635 10 0 6 -8 10 -18 10 -48 0 -53 42 -16 135 l26
65 134 0 134 0 26 -57 c47 -106 43 -142 -13 -143 -13 0 -23 -4 -23 -10 0 -14
529 -13 605 1 194 36 307 195 276 387 -12 78 -39 128 -93 179 -80 73 -132 86
-371 92 -189 6 -254 0 -177 -15 55 -11 55 -14 55 -316 l0 -280 -24 -19 c-13
-10 -27 -19 -31 -19 -28 0 -65 68 -186 345 -75 171 -139 314 -144 318 -4 5
-12 3 -16 -5z m713 -68 c73 -32 109 -65 139 -127 25 -50 29 -69 29 -148 0 -79
-4 -98 -29 -148 -48 -99 -145 -151 -273 -145 l-68 3 -3 289 c-2 225 1 292 10
298 21 15 144 1 195 -22z m-672 -203 c28 -67 51 -128 53 -134 3 -10 -24 -13
-107 -13 -60 0 -112 3 -114 8 -3 4 15 52 39 107 24 55 48 112 53 128 5 15 14
27 18 27 4 0 31 -55 58 -123z"/>
<path d="M4665 2269 c-67 -20 -115 -89 -115 -162 0 -85 31 -121 177 -211 118
-73 143 -102 143 -168 0 -43 -4 -54 -30 -78 -79 -73 -213 -30 -270 89 -26 52
-57 71 -47 29 12 -49 19 -158 11 -158 -26 0 -75 48 -169 165 -58 71 -105 133
-105 136 0 4 20 12 45 19 24 7 61 27 82 45 35 30 37 36 41 101 4 84 -15 122
-80 156 -43 23 -47 23 -511 28 -428 5 -533 1 -447 -16 58 -12 60 -21 60 -317
0 -162 -4 -276 -10 -287 -6 -11 -26 -22 -45 -26 -97 -18 -2 -24 376 -24 271 0
408 3 404 10 -3 6 -14 10 -23 10 -10 0 -28 7 -40 16 -21 14 -22 22 -22 145 0
128 0 129 23 129 18 0 52 -36 147 -154 l123 -155 91 -3 c71 -2 94 0 104 11 11
13 20 13 76 -2 187 -50 319 21 319 170 0 71 -32 118 -120 175 -37 25 -94 62
-126 83 -71 46 -87 68 -87 121 0 34 5 47 27 63 37 30 67 35 120 21 56 -16 105
-63 128 -124 19 -49 35 -60 35 -23 0 36 -21 191 -26 197 -3 3 -10 -3 -15 -13
-12 -21 -39 -21 -103 -2 -55 17 -96 18 -141 4z m-693 -52 c4 -7 8 -139 8 -294
l0 -283 -25 -16 c-14 -9 -28 -14 -32 -10 -3 3 2 35 12 71 19 71 13 95 -13 55
-32 -49 -78 -88 -117 -99 -55 -15 -228 -14 -243 1 -8 8 -12 55 -12 145 l0 134
118 -3 117 -3 20 -42 c11 -23 23 -42 28 -43 4 0 7 52 7 115 0 110 -11 148 -25
86 -12 -56 -35 -66 -154 -66 l-106 0 -3 119 c-2 83 1 123 10 133 10 13 34 15
129 11 133 -5 160 -16 179 -73 17 -52 30 -43 30 23 0 32 3 61 6 65 8 8 57 -11
66 -26z m287 -11 c43 -23 61 -58 61 -122 0 -50 -4 -60 -33 -89 -33 -33 -101
-55 -167 -55 l-30 0 0 139 c0 102 3 141 13 145 21 9 126 -3 156 -18z"/>
<path d="M5105 2260 c-102 -4 -131 -7 -107 -13 63 -17 62 -10 62 -322 0 -282
0 -284 -22 -299 -12 -9 -30 -16 -40 -16 -10 0 -18 -4 -18 -10 0 -6 52 -10 135
-10 83 0 135 4 135 10 0 6 -9 10 -19 10 -10 0 -29 9 -42 19 -23 18 -24 25 -24
148 l0 128 155 0 155 0 0 -128 c0 -123 -1 -130 -24 -148 -13 -10 -32 -19 -42
-19 -10 0 -19 -4 -19 -10 0 -6 135 -10 385 -10 353 0 451 7 345 24 -54 8 -61
31 -58 165 l3 106 100 6 c150 8 226 57 240 153 13 85 -19 146 -99 189 -40 22
-48 22 -481 24 -351 2 -433 -1 -408 -10 56 -21 58 -27 58 -165 l0 -127 -155 0
-155 0 -3 90 c-2 50 0 110 3 134 6 39 10 45 46 59 21 8 39 19 39 24 0 4 -1 7
-2 6 -2 -1 -66 -5 -143 -8z m598 -38 c15 -14 17 -41 17 -294 0 -265 -1 -279
-20 -298 -11 -11 -33 -20 -50 -20 -17 0 -39 9 -50 20 -19 19 -20 33 -20 298 0
152 4 282 8 289 21 33 80 36 115 5z m249 -5 c4 -7 8 -137 8 -289 0 -265 -1
-279 -20 -298 -25 -25 -61 -26 -91 -1 l-24 19 0 280 c0 296 2 307 48 314 27 5
69 -9 79 -25z m282 -15 c62 -35 84 -133 47 -202 -27 -52 -71 -73 -150 -74
l-66 -1 -3 139 c-2 99 1 142 10 153 16 20 118 11 162 -15z"/>
</g>
</svg>
