<?xml version="1.0" standalone="no"?>
<!DOCTYPE svg PUBLIC "-//W3C//DTD SVG 20010904//EN"
 "http://www.w3.org/TR/2001/REC-SVG-20010904/DTD/svg10.dtd">
<svg version="1.0" xmlns="http://www.w3.org/2000/svg"
 width="639.000000pt" height="400.000000pt" viewBox="0 0 639.000000 400.000000"
 preserveAspectRatio="xMidYMid meet">

<g transform="translate(0.000000,400.000000) scale(0.100000,-0.100000)"
fill="#000000" stroke="none">
<path d="M4520 3594 c-58 -13 -124 -30 -148 -39 -70 -25 -246 -115 -262 -133
-8 -9 -33 -30 -55 -47 -46 -34 -205 -194 -205 -205 0 -5 -6 -15 -13 -22 -31
-32 -86 -119 -121 -193 -22 -44 -43 -88 -48 -98 -31 -64 -67 -204 -77 -301 -5
-55 -11 -72 -30 -87 -28 -23 -40 -24 -67 -4 -17 12 -27 12 -53 2 -17 -6 -31
-16 -31 -22 -4 -164 1 -976 6 -988 3 -10 1 -17 -5 -17 -6 0 -11 -7 -11 -15 0
-18 -16 -20 -26 -4 -3 6 -46 127 -94 268 -130 379 -197 567 -212 598 l-13 28
-132 3 c-131 3 -132 3 -152 30 -12 15 -26 33 -31 40 -8 8 -8 12 0 12 6 0 10
12 8 28 -4 34 -42 44 -51 12 -3 -13 -10 -18 -21 -14 -13 5 -14 9 -5 20 10 12
-16 14 -169 14 l-180 0 -16 -40 c-9 -22 -16 -47 -16 -56 0 -8 -7 -22 -15 -30
-8 -9 -15 -30 -15 -48 0 -17 -4 -36 -8 -41 -5 -6 -21 -40 -36 -76 -19 -47 -25
-74 -20 -94 5 -19 3 -26 -4 -21 -6 3 -13 2 -17 -4 -6 -10 -31 -93 -41 -139 -3
-13 -11 -33 -19 -45 -8 -11 -15 -30 -15 -41 0 -11 -6 -30 -14 -41 -8 -11 -18
-38 -21 -60 -4 -21 -12 -45 -18 -52 -6 -7 -13 -30 -16 -50 -5 -28 -11 -37 -26
-37 -20 0 -20 9 -23 354 -1 237 -6 359 -13 367 -8 10 -53 14 -163 16 l-151 3
-1 45 c-3 85 -7 90 -86 90 -62 0 -69 -2 -58 -15 11 -13 8 -15 -18 -15 -24 0
-30 4 -26 15 5 12 -2 15 -31 15 -29 0 -36 -3 -31 -15 3 -9 0 -15 -9 -15 -8 0
-15 7 -15 15 0 10 -10 15 -29 15 -26 0 -29 -3 -34 -47 -3 -27 -4 -130 -1 -230
6 -249 9 -249 -137 -16 -43 69 -87 132 -97 139 -11 9 -50 13 -119 14 -105 0
-133 5 -133 23 0 5 -11 25 -25 43 -14 18 -25 38 -25 44 0 21 -54 30 -191 30
-124 0 -140 -2 -137 -16 2 -10 -3 -19 -9 -21 -8 -3 -13 4 -13 16 0 12 -6 21
-12 21 -10 0 -12 -146 -10 -702 l2 -703 130 -1 c71 -1 136 -4 145 -7 11 -5 15
-22 15 -71 0 -103 -13 -96 190 -96 118 0 181 4 186 11 3 6 7 119 8 252 1 133
5 248 9 255 14 22 25 13 22 -20 -2 -23 8 -46 33 -82 20 -28 41 -55 47 -61 6
-5 15 -22 18 -37 4 -15 14 -33 22 -42 8 -8 15 -20 15 -26 0 -19 51 -74 69 -75
9 -1 53 -2 98 -3 l82 -2 20 -45 c11 -24 34 -63 52 -85 l32 -40 177 0 c123 0
180 4 188 12 7 7 12 41 12 84 l0 71 83 6 c46 3 86 2 92 -4 6 -6 1 -33 -12 -74
-32 -97 -33 -97 193 -93 100 2 185 6 189 10 4 3 10 21 15 40 23 90 45 155 58
171 12 13 31 17 92 17 114 0 141 -7 154 -43 l11 -29 118 4 117 5 6 -26 c14
-63 35 -125 45 -137 9 -11 53 -14 205 -14 223 0 218 -3 184 94 -11 32 -17 62
-14 67 3 5 45 9 95 9 l89 0 0 -73 c0 -43 5 -78 12 -85 15 -15 354 -17 363 -2
3 5 7 104 8 219 2 116 5 212 8 216 5 5 28 -16 93 -87 13 -15 26 -35 28 -45 2
-12 13 -18 32 -18 16 0 31 -6 33 -12 3 -8 -4 -13 -15 -13 -32 0 -32 -23 2 -62
30 -34 34 -36 118 -43 97 -8 116 -20 175 -106 18 -26 40 -49 48 -53 9 -3 92
-6 185 -6 137 0 170 3 180 15 8 10 12 51 12 125 l-1 110 27 6 c15 3 43 12 62
19 19 8 54 19 77 25 23 6 45 15 48 20 3 6 13 10 21 10 14 0 183 99 210 123
179 161 297 286 313 331 2 6 9 18 17 26 32 37 128 251 139 312 3 13 12 52 22
88 13 51 17 112 17 275 1 220 -4 259 -57 425 -19 61 -98 228 -124 260 -6 8
-33 44 -60 80 -113 150 -178 218 -284 290 -48 33 -90 60 -93 60 -4 0 -44 18
-90 40 -46 22 -88 40 -95 40 -6 0 -19 4 -29 9 -9 5 -62 18 -117 30 -138 29
-320 27 -465 -5z m470 -33 c132 -26 302 -99 426 -186 42 -29 189 -180 240
-247 66 -86 169 -270 184 -328 4 -19 13 -48 18 -65 38 -113 46 -181 44 -379
-2 -160 -7 -215 -23 -280 -11 -45 -24 -89 -29 -98 -6 -10 -10 -24 -10 -33 0
-15 -26 -76 -63 -150 -85 -169 -266 -366 -437 -476 -91 -59 -219 -119 -253
-119 -8 0 -28 -7 -44 -15 -48 -24 -64 -11 -61 48 3 56 -2 52 118 97 141 53
195 87 330 207 122 108 226 255 284 398 99 247 109 532 28 795 -55 177 -232
427 -388 548 -93 72 -269 153 -378 173 -215 41 -496 8 -639 -73 -26 -16 -54
-28 -61 -28 -7 0 -24 -8 -37 -19 -13 -10 -42 -31 -64 -45 -97 -66 -206 -181
-283 -300 -78 -120 -147 -304 -171 -458 -5 -33 -16 -55 -35 -73 -27 -25 -29
-25 -42 -8 -37 46 -36 55 5 248 12 56 51 160 81 216 4 8 21 40 36 70 56 109
241 330 304 364 14 8 36 24 50 37 29 27 226 130 284 148 115 37 202 48 361 45
88 -1 189 -8 225 -14z m-37 -142 c182 -28 422 -171 532 -318 19 -25 54 -71 79
-101 25 -30 45 -58 46 -62 0 -4 13 -29 28 -55 16 -26 33 -61 39 -78 7 -16 21
-55 33 -85 58 -152 65 -499 14 -645 -8 -23 -14 -47 -14 -56 0 -8 -9 -32 -20
-54 -11 -22 -20 -45 -20 -52 0 -8 -28 -59 -62 -115 -66 -106 -175 -223 -283
-306 -85 -65 -250 -145 -300 -146 l-40 -1 -3 46 -3 47 54 31 c30 17 73 38 96
46 84 29 253 178 337 296 35 48 104 176 104 191 0 6 6 24 14 41 22 51 56 247
56 323 0 38 -5 87 -11 109 -6 22 -15 65 -20 95 -6 30 -14 59 -20 64 -5 6 -9
18 -9 28 0 31 -70 169 -121 238 -90 121 -163 200 -185 200 -4 0 -25 15 -48 33
-23 17 -59 40 -81 50 -22 10 -53 25 -69 33 -109 55 -363 71 -523 33 -48 -11
-92 -24 -98 -29 -5 -4 -20 -11 -32 -14 -93 -29 -272 -175 -342 -279 -9 -14
-29 -44 -45 -68 -84 -126 -135 -278 -151 -454 -4 -38 -11 -80 -16 -93 -9 -24
-11 -22 -36 29 -15 30 -30 56 -33 59 -4 3 -18 25 -30 50 -22 43 -22 46 -7 110
9 36 18 79 21 95 5 36 57 177 83 225 61 114 189 271 279 340 65 51 169 120
179 120 3 0 31 11 62 25 52 24 139 48 208 58 65 9 290 6 358 -4z m-8 -200 c90
-23 149 -44 170 -61 13 -10 29 -18 35 -18 37 0 203 -153 278 -255 110 -152
155 -281 169 -485 13 -180 -50 -413 -148 -557 -119 -172 -352 -343 -456 -334
-9 1 -13 22 -13 69 0 71 17 112 47 112 51 0 267 190 313 275 12 22 32 58 45
80 13 22 24 52 25 66 0 15 7 45 15 68 22 63 23 280 0 356 -30 103 -62 170
-114 235 -20 25 -40 51 -46 59 -52 73 -224 201 -270 201 -8 0 -32 7 -51 15
-50 21 -258 27 -310 9 -21 -8 -48 -14 -58 -14 -11 0 -52 -16 -92 -34 -97 -47
-231 -178 -302 -297 -50 -84 -92 -232 -92 -324 0 -23 -5 -46 -12 -53 -7 -7
-40 -12 -80 -12 -64 0 -68 1 -74 25 -12 48 10 210 41 301 47 139 171 317 286
411 35 29 72 59 82 68 9 8 21 15 26 15 5 0 38 14 74 30 125 59 378 83 512 49z
m-30 -204 c67 -15 152 -51 173 -71 7 -8 20 -14 28 -14 8 0 17 -6 20 -14 3 -8
18 -20 34 -26 16 -7 32 -20 35 -30 3 -10 17 -30 31 -46 40 -45 100 -136 120
-180 71 -162 72 -405 0 -575 -51 -120 -286 -346 -351 -337 -18 3 -20 12 -23
103 l-2 100 61 65 c118 124 159 219 158 365 0 206 -130 393 -317 459 -71 25
-246 19 -307 -10 -64 -30 -143 -92 -170 -132 -14 -20 -32 -48 -41 -62 -9 -14
-25 -36 -34 -50 -9 -14 -20 -39 -23 -55 -30 -142 -30 -148 -13 -255 10 -58 19
-130 20 -160 1 -30 5 -70 10 -87 4 -18 5 -33 2 -33 -10 0 -42 35 -49 53 -3 9
-11 17 -16 17 -5 0 -19 20 -31 44 -11 24 -28 50 -36 56 -7 7 -14 18 -14 25 0
6 -8 20 -19 29 -25 23 -43 122 -36 194 14 131 31 208 56 252 5 8 15 26 21 40
21 44 90 130 168 209 38 38 141 95 225 122 64 22 238 24 320 4z m-31 -240 c11
-8 26 -15 32 -15 16 0 80 -43 108 -72 43 -46 96 -117 96 -129 0 -7 6 -20 14
-28 7 -9 19 -51 25 -93 15 -92 -1 -222 -33 -278 -10 -19 -25 -46 -32 -60 -25
-48 -113 -120 -114 -92 0 4 -2 68 -3 142 -2 74 -9 155 -16 180 -7 25 -17 63
-23 84 -6 25 -28 59 -58 90 l-49 51 -89 0 -88 0 -35 -36 c-52 -55 -99 -85
-109 -69 -6 9 -31 12 -83 11 -69 -2 -76 0 -82 19 -9 27 16 79 73 153 46 61
125 126 153 127 8 0 24 7 35 15 27 21 251 21 278 0z m-31 -291 c45 -47 71
-105 63 -139 l-7 -26 -127 3 -127 3 -7 85 c-9 105 -4 110 98 110 69 0 73 -1
107 -36z m-478 -55 c0 -8 9 -16 20 -19 28 -8 31 -40 5 -60 -13 -10 -23 -31
-27 -58 -10 -72 -23 -35 -23 64 0 72 3 95 13 92 6 -3 12 -11 12 -19z m-1927 4
c-10 -2 -26 -2 -35 0 -10 3 -2 5 17 5 19 0 27 -2 18 -5z m125 0 c-18 -2 -48
-2 -65 0 -18 2 -4 4 32 4 36 0 50 -2 33 -4z m-1070 -30 c-7 -2 -19 -2 -25 0
-7 3 -2 5 12 5 14 0 19 -2 13 -5z m91 -1 c3 -5 -8 -6 -25 -4 -16 2 -29 6 -29
8 0 8 49 4 54 -4z m830 -44 c-9 -64 -9 -65 -48 -60 -36 4 -36 4 -36 53 l0 49
45 0 45 0 -6 -42z m297 20 c1 -7 1 -23 1 -35 -1 -13 5 -23 12 -23 12 0 46 -56
46 -75 0 -17 -45 2 -48 20 -2 17 -9 20 -42 17 -25 -3 -40 0 -40 7 0 6 4 11 10
11 5 0 12 12 16 28 12 54 16 62 30 62 8 0 15 -6 15 -12z m-116 -28 c0 -13 -5
-25 -11 -27 -14 -5 -25 22 -17 42 8 23 28 12 28 -15z m1891 -20 c-1 -50 -14
-67 -23 -30 -3 11 -9 20 -14 20 -9 0 -1 28 14 48 18 23 24 12 23 -38z m123 18
c-1 -31 -1 -31 -8 -8 -5 14 -6 28 -4 33 9 15 13 6 12 -25z m-3069 -48 c0 -10
-5 -22 -10 -25 -13 -8 -24 20 -16 41 8 20 26 9 26 -16z m2136 9 c4 -7 6 -43 6
-80 -1 -39 3 -69 8 -69 6 0 10 -14 10 -32 0 -23 -3 -29 -11 -21 -6 6 -14 50
-16 97 -3 48 -10 89 -14 92 -12 7 -11 24 0 24 6 0 13 -5 17 -11z m-2849 -36
c5 -15 -70 -38 -94 -28 -16 6 -15 8 7 17 14 6 32 14 40 19 20 11 42 7 47 -8z
m797 -6 c13 -20 5 -30 -18 -21 -9 3 -16 15 -16 26 0 22 18 20 34 -5z m1883
-84 c-2 -21 -4 -4 -4 37 0 41 2 58 4 38 2 -21 2 -55 0 -75z m-877 87 c0 -5 -8
-10 -17 -10 -15 0 -16 2 -3 10 19 12 20 12 20 0z m1232 -41 c-4 -40 -15 -54
-37 -46 -39 16 -26 85 17 82 20 -2 23 -6 20 -36z m658 -1 c0 -14 -18 -9 -24 8
-11 28 -6 39 9 20 8 -11 15 -23 15 -28z m-3646 16 c3 -9 6 -21 6 -27 0 -16
-23 9 -26 28 -3 20 12 19 20 -1z m576 12 c0 -3 -4 -8 -10 -11 -5 -3 -10 -1
-10 4 0 6 5 11 10 11 6 0 10 -2 10 -4z m1018 -33 c-4 -22 -22 -20 -26 1 -2 10
3 16 13 16 10 0 15 -7 13 -17z m62 2 c0 -8 -4 -15 -9 -15 -5 0 -11 7 -15 15
-3 9 0 15 9 15 8 0 15 -7 15 -15z m180 -15 c0 -28 -3 -30 -35 -30 -22 0 -35
-5 -35 -13 0 -8 -12 -20 -26 -27 -22 -12 -27 -12 -34 0 -7 11 0 18 26 30 29
12 34 19 31 38 -3 14 0 22 7 19 6 -2 20 -1 31 4 32 12 35 11 35 -21z m100 10
c0 -11 -4 -20 -10 -20 -5 0 -10 9 -10 20 0 11 5 20 10 20 6 0 10 -9 10 -20z
m-1450 -22 c0 -18 -5 -40 -10 -48 -7 -11 -10 -2 -10 33 0 26 5 47 10 47 6 0
10 -15 10 -32z m-627 -8 c16 -19 16 -20 -3 -20 -13 0 -20 7 -20 20 0 11 1 20
3 20 1 0 10 -9 20 -20z m855 -14 c4 -20 -16 -48 -29 -40 -11 6 -12 48 -2 58
11 10 28 1 31 -18z m678 -13 c-11 -11 -19 6 -11 24 8 17 8 17 12 0 3 -10 2
-21 -1 -24z m221 7 c1 -11 -2 -20 -8 -20 -5 0 -9 9 -9 20 0 11 4 20 8 20 4 0
8 -9 9 -20z m2087 -6 c25 -9 19 -24 -9 -24 -24 0 -32 10 -18 23 8 8 8 8 27 1z
m-2109 -23 c6 -21 -3 -51 -16 -51 -5 0 -9 9 -9 19 0 11 -3 26 -6 35 -4 10 -1
16 9 16 9 0 18 -8 22 -19z m82 -21 c2 -36 0 -40 -22 -40 -25 0 -29 -7 -40 -72
-6 -38 -18 -48 -30 -27 -12 18 5 99 20 99 8 0 17 15 21 34 4 25 12 36 28 39
11 2 21 5 21 6 0 0 1 -17 2 -39z m223 36 c0 -2 -7 -7 -16 -10 -8 -3 -12 -2 -9
4 6 10 25 14 25 6z m1690 -6 c0 -5 -4 -10 -10 -10 -5 0 -10 5 -10 10 0 6 5 10
10 10 6 0 10 -4 10 -10z m-2180 -52 c0 -11 -8 -18 -19 -18 -28 0 -33 13 -14
39 12 18 17 20 24 10 5 -8 9 -22 9 -31z m-867 -30 c-8 -19 -10 -15 -11 23 -1
38 1 41 10 22 8 -16 8 -30 1 -45z m912 52 c3 -5 1 -10 -4 -10 -6 0 -11 5 -11
10 0 6 2 10 4 10 3 0 8 -4 11 -10z m-789 -37 c-10 -10 -19 5 -10 18 6 11 8 11
12 0 2 -7 1 -15 -2 -18z m1174 7 c0 -5 -8 -10 -17 -10 -15 0 -16 2 -3 10 19
12 20 12 20 0z m-1922 -47 c-3 -42 -18 -48 -55 -25 -14 8 -23 24 -23 38 0 21
4 24 41 24 l40 0 -3 -37z m1600 -37 c-3 -21 -5 -23 -20 -12 -16 12 -16 15 0
48 16 32 17 33 20 11 2 -12 2 -34 0 -47z m1492 58 c0 -8 -4 -12 -10 -9 -5 3
-10 10 -10 16 0 5 5 9 10 9 6 0 10 -7 10 -16z m750 -14 c0 -16 -4 -30 -10 -30
-5 0 -10 6 -10 14 0 8 -3 21 -6 30 -4 11 -1 16 10 16 11 0 16 -9 16 -30z
m-2408 -12 c-7 -7 -12 -8 -12 -2 0 6 3 14 7 17 3 4 9 5 12 2 2 -3 -1 -11 -7
-17z m2288 12 c0 -5 -4 -10 -10 -10 -5 0 -10 5 -10 10 0 6 5 10 10 10 6 0 10
-4 10 -10z m-1636 -8 c3 -5 1 -22 -4 -38 -9 -32 -10 -32 -16 14 -3 29 8 43 20
24z m-1864 -27 c0 -8 -9 -15 -19 -15 -11 0 -21 -5 -23 -11 -2 -5 -11 -7 -21
-4 -25 10 -11 25 24 25 16 0 29 5 29 10 0 6 2 10 5 10 3 0 5 -7 5 -15z m1199
-4 c8 -14 7 -22 -4 -31 -13 -11 -15 -8 -15 19 0 36 5 39 19 12z m406 -1 c3 -5
1 -10 -5 -10 -7 0 -10 -7 -7 -15 4 -8 2 -17 -2 -20 -10 -6 -20 24 -14 43 6 15
19 16 28 2z m1982 -28 c-17 -17 -47 -10 -47 11 0 9 9 12 31 9 27 -4 29 -6 16
-20z m-4007 9 c0 -5 9 -11 20 -14 14 -3 20 -14 20 -31 0 -24 -4 -26 -40 -26
-33 0 -40 3 -40 19 0 11 6 22 13 25 9 5 9 7 -1 12 -6 3 -10 10 -6 15 7 12 34
12 34 0z m800 -31 c0 -22 -4 -40 -10 -40 -5 0 -10 18 -10 40 0 22 5 40 10 40
6 0 10 -18 10 -40z m3012 20 c16 -15 19 -23 11 -31 -18 -18 -43 -2 -43 26 0
30 4 31 32 5z m-3352 -11 c0 -5 -4 -9 -10 -9 -5 0 -10 7 -10 16 0 8 5 12 10 9
6 -3 10 -10 10 -16z m297 -1 c-3 -8 -6 -5 -6 6 -1 11 2 17 5 13 3 -3 4 -12 1
-19z m2583 -20 c0 -22 -28 -24 -36 -3 -9 21 16 51 27 33 5 -7 9 -21 9 -30z
m-191 -50 c-8 -19 -15 -25 -19 -18 -9 15 -1 50 11 50 5 0 10 12 10 28 l2 27 4
-29 c3 -15 -1 -41 -8 -58z m311 62 c0 -5 -2 -10 -4 -10 -3 0 -8 5 -11 10 -3 6
-1 10 4 10 6 0 11 -4 11 -10z m-1710 -4 c0 -2 3 -11 6 -20 5 -12 0 -16 -19
-16 -20 0 -24 4 -20 20 4 16 33 30 33 16z m101 -79 c-8 -8 -11 1 -11 29 0 53
14 67 18 19 2 -21 -1 -42 -7 -48z m319 63 c0 -11 -7 -20 -15 -20 -15 0 -21 21
-8 33 12 13 23 7 23 -13z m141 -33 c-8 -8 -11 -7 -11 4 0 20 13 34 18 19 3 -7
-1 -17 -7 -23z m-1816 14 c3 -5 1 -12 -5 -16 -5 -3 -10 1 -10 9 0 18 6 21 15
7z m-215 -11 c0 -5 -2 -10 -4 -10 -3 0 -8 5 -11 10 -3 6 -1 10 4 10 6 0 11 -4
11 -10z m140 0 c0 -5 -9 -10 -20 -10 -11 0 -20 5 -20 10 0 6 9 10 20 10 11 0
20 -4 20 -10z m1190 0 c0 -5 -4 -10 -10 -10 -5 0 -10 5 -10 10 0 6 5 10 10 10
6 0 10 -4 10 -10z m1750 0 c0 -5 -4 -10 -9 -10 -6 0 -13 5 -16 10 -3 6 1 10 9
10 9 0 16 -4 16 -10z m487 -27 c-3 -10 -5 -4 -5 12 0 17 2 24 5 18 2 -7 2 -21
0 -30z m-1752 8 c3 -5 1 -12 -4 -15 -5 -3 -11 1 -15 9 -6 16 9 21 19 6z m105
-6 c0 -8 -4 -15 -10 -15 -5 0 -10 7 -10 15 0 8 5 15 10 15 6 0 10 -7 10 -15z
m-1368 -25 c18 0 20 -4 14 -37 -3 -21 -6 -44 -6 -50 0 -7 -7 -13 -15 -13 -19
0 -56 31 -49 42 3 4 0 8 -5 8 -6 0 -11 7 -11 15 0 8 4 15 9 15 5 0 12 12 16
27 6 24 8 26 16 10 6 -9 19 -17 31 -17z m2978 3 c0 -13 -3 -13 -15 -3 -8 7
-12 16 -9 21 8 13 24 1 24 -18z m-3570 -3 c0 -11 0 -23 1 -27 0 -4 -4 -9 -10
-11 -6 -2 -11 10 -11 27 0 17 5 31 10 31 6 0 10 -9 10 -20z m93 1 c5 -22 0
-31 -20 -31 -13 0 -18 31 -6 43 11 12 21 8 26 -12z m82 -20 c-4 -9 -9 -28 -12
-43 -6 -32 -27 -53 -43 -43 -15 9 -13 19 10 45 11 13 20 33 20 46 0 17 4 22
16 17 9 -3 13 -12 9 -22z m1743 11 c29 -26 21 -92 -12 -92 -31 0 -62 60 -47
89 14 26 31 27 59 3z m-591 -17 c-3 -28 -17 -46 -17 -22 0 18 10 47 16 47 3 0
3 -11 1 -25z m263 4 c0 -18 -2 -19 -15 -9 -15 12 -12 30 6 30 5 0 9 -10 9 -21z
m506 -16 c-5 -12 -10 -13 -17 -6 -8 8 -7 16 2 26 16 17 24 5 15 -20z m1041 11
c-9 -9 -28 6 -21 18 4 6 10 6 17 -1 6 -6 8 -13 4 -17z m-1690 7 c15 -1 27 -62
18 -91 -6 -20 -8 -20 -19 -4 -8 10 -18 14 -26 9 -14 -9 -5 -122 12 -142 8 -10
5 -13 -11 -13 -16 0 -21 6 -21 25 0 15 -5 24 -12 23 -7 -2 -12 5 -10 15 2 9
-2 17 -8 17 -15 0 -12 71 5 100 8 14 14 34 15 46 0 15 6 20 23 18 12 -1 27 -3
34 -3z m2193 -11 c0 -5 -2 -10 -4 -10 -3 0 -8 5 -11 10 -3 6 -1 10 4 10 6 0
11 -4 11 -10z m160 -6 c0 -8 -4 -12 -10 -9 -5 3 -10 10 -10 16 0 5 5 9 10 9 6
0 10 -7 10 -16z m-3149 -63 c-10 -7 -9 -17 4 -81 3 -14 1 -32 -5 -40 -24 -37
-36 118 -14 175 7 17 9 15 17 -14 5 -22 5 -36 -2 -40z m2537 47 c16 -16 15
-48 -1 -48 -7 0 -22 6 -32 14 -16 12 -17 16 -6 30 16 19 23 20 39 4z m-1642
-25 c18 -24 18 -63 0 -63 -16 0 -26 21 -26 56 0 28 8 30 26 7z m2197 -9 c4
-22 2 -25 -17 -20 -11 3 -27 6 -33 6 -7 0 -13 6 -13 14 0 15 14 24 41 25 10 1
19 -9 22 -25z m-923 -4 c0 -5 -5 -10 -11 -10 -5 0 -7 5 -4 10 3 6 8 10 11 10
2 0 4 -4 4 -10z m-768 -26 c-4 -22 -6 -24 -14 -10 -9 16 -3 36 11 36 5 0 6
-12 3 -26z m1311 12 c6 -16 -2 -28 -14 -20 -12 7 -11 34 0 34 5 0 11 -6 14
-14z m-3003 -27 c0 -17 -4 -28 -10 -24 -5 3 -10 17 -10 31 0 13 5 24 10 24 6
0 10 -14 10 -31z m1480 22 c0 -6 -4 -13 -10 -16 -5 -3 -10 1 -10 9 0 9 5 16
10 16 6 0 10 -4 10 -9z m773 -152 c-12 -12 -26 121 -16 148 5 12 11 -9 17 -60
5 -50 5 -82 -1 -88z m-490 95 c-3 -23 -11 -41 -18 -41 -15 0 -14 11 4 55 17
41 21 37 14 -14z m1037 30 c0 -8 -4 -12 -10 -9 -5 3 -10 10 -10 16 0 5 5 9 10
9 6 0 10 -7 10 -16z m640 6 c0 -5 -2 -10 -4 -10 -3 0 -8 5 -11 10 -3 6 -1 10
4 10 6 0 11 -4 11 -10z m-3605 -10 c3 -5 15 -10 26 -10 11 0 22 -7 25 -15 4
-8 16 -15 28 -16 l21 0 -22 -16 c-31 -21 -29 -52 4 -80 26 -23 26 -24 9 -56
-9 -17 -15 -24 -12 -15 6 20 -53 88 -77 88 -10 0 -17 8 -17 20 0 23 -10 26
-28 8 -20 -20 -26 0 -12 44 8 24 15 46 17 51 6 10 31 9 38 -3z m85 0 c0 -5 -2
-10 -4 -10 -3 0 -8 5 -11 10 -3 6 -1 10 4 10 6 0 11 -4 11 -10z m1740 -25 c0
-8 5 -15 10 -15 6 0 10 -6 10 -14 0 -8 9 -18 20 -21 11 -3 20 -15 20 -26 0
-12 -7 -19 -20 -19 -13 0 -20 7 -20 18 0 13 -9 18 -30 20 -16 1 -30 -3 -30 -8
0 -6 -4 -8 -10 -5 -11 7 -14 68 -3 78 13 13 53 7 53 -8z m864 -11 c3 -8 2 -12
-4 -9 -6 3 -10 10 -10 16 0 14 7 11 14 -7z m331 -2 c0 -6 10 -19 23 -27 25
-18 29 -35 8 -35 -16 0 -56 51 -56 70 0 6 6 10 13 8 6 -3 12 -10 12 -16z m304
-8 c-14 -18 -24 -11 -15 11 3 9 11 13 16 10 8 -5 7 -11 -1 -21z m-3109 -10 c0
-8 -4 -12 -10 -9 -5 3 -10 10 -10 16 0 5 5 9 10 9 6 0 10 -7 10 -16z m885 -2
c-3 -3 -11 0 -18 7 -9 10 -8 11 6 5 10 -3 15 -9 12 -12z m2298 11 c-7 -2 -19
-2 -25 0 -7 3 -2 5 12 5 14 0 19 -2 13 -5z m-273 -34 c0 -5 -7 -9 -15 -9 -9 0
-15 9 -15 21 0 18 2 19 15 9 8 -7 15 -16 15 -21z m360 -5 c0 -2 -9 -4 -20 -4
-11 0 -20 4 -20 9 0 5 9 7 20 4 11 -3 20 -7 20 -9z m-3084 -31 c-11 -11 -19 6
-11 24 8 17 8 17 12 0 3 -10 2 -21 -1 -24z m647 17 c3 -11 1 -18 -4 -14 -5 3
-9 12 -9 20 0 20 7 17 13 -6z m904 -22 c-3 -8 -6 -5 -6 6 -1 11 2 17 5 13 3
-3 4 -12 1 -19z m-247 8 c0 -2 -7 -6 -15 -10 -8 -3 -15 -1 -15 4 0 6 7 10 15
10 8 0 15 -2 15 -4z m1900 -11 c0 -8 -4 -15 -9 -15 -13 0 -22 16 -14 24 11 11
23 6 23 -9z m-3460 1 c0 -11 -19 -15 -25 -6 -3 5 1 10 9 10 9 0 16 -2 16 -4z
m1640 -16 c-9 -18 -40 -29 -40 -15 0 11 25 34 38 35 10 0 10 -5 2 -20z m824 4
c9 -25 7 -64 -4 -64 -5 0 -10 8 -10 19 0 26 -25 46 -36 29 -5 -7 -7 -21 -6
-30 2 -11 -3 -18 -12 -18 -20 0 -21 36 -1 44 8 3 15 12 15 21 0 20 46 20 54
-1z m853 -20 c-2 -2 -15 0 -28 5 -17 7 -19 10 -6 10 9 1 17 7 17 14 0 6 5 4
11 -6 6 -10 9 -21 6 -23z m-4020 -26 c-2 -13 -4 -5 -4 17 -1 22 1 32 4 23 2
-10 2 -28 0 -40z m83 7 c0 -38 -3 -45 -20 -45 -17 0 -20 7 -20 45 0 38 3 45
20 45 17 0 20 -7 20 -45z m480 29 c0 -11 -22 -24 -41 -24 -5 0 -9 9 -9 19 0
14 7 19 25 17 14 0 25 -6 25 -12z m2956 -11 c-7 -7 -26 7 -26 19 0 6 6 6 15
-2 9 -7 13 -15 11 -17z m-963 -13 c6 -24 3 -25 -17 -4 -9 8 -14 20 -10 25 8
13 21 3 27 -21z m1107 20 c0 -5 -4 -10 -10 -10 -5 0 -10 5 -10 10 0 6 5 10 10
10 6 0 10 -4 10 -10z m108 -8 c3 -9 -2 -13 -14 -10 -9 1 -19 9 -22 16 -3 9 2
13 14 10 9 -1 19 -9 22 -16z m-3051 -14 c-3 -8 -6 -5 -6 6 -1 11 2 17 5 13 3
-3 4 -12 1 -19z m1746 -7 c-2 -11 2 -21 7 -21 6 0 10 -18 10 -39 0 -22 4 -41
10 -43 5 -1 12 -20 15 -40 5 -30 3 -38 -9 -38 -12 0 -16 10 -16 40 0 22 -4 40
-10 40 -5 0 -10 6 -10 13 0 8 -7 28 -16 45 -16 34 -11 76 9 69 7 -2 11 -14 10
-26z m1587 19 c0 -5 -2 -10 -4 -10 -3 0 -8 5 -11 10 -3 6 -1 10 4 10 6 0 11
-4 11 -10z m-1029 -22 c5 -77 -7 -178 -22 -178 -10 0 -13 173 -2 183 10 11 23
8 24 -5z m-1444 -24 c-9 -9 -28 6 -21 18 4 6 10 6 17 -1 6 -6 8 -13 4 -17z
m301 16 c15 0 15 -2 2 -10 -8 -5 -10 -10 -5 -10 11 0 -16 -20 -27 -20 -5 0 -8
7 -8 15 0 8 -5 15 -11 15 -5 0 -7 5 -4 11 4 6 14 8 22 5 8 -3 22 -6 31 -6z
m1935 3 c4 -3 2 -12 -4 -20 -13 -15 -49 -18 -49 -3 0 6 7 10 15 10 8 0 15 5
15 10 0 11 13 13 23 3z m307 3 c0 -3 -4 -8 -10 -11 -5 -3 -10 -1 -10 4 0 6 5
11 10 11 6 0 10 -2 10 -4z m-542 -13 c-10 -2 -18 -9 -18 -14 0 -6 -5 -7 -10
-4 -16 10 -1 25 23 24 17 -1 18 -2 5 -6z m-2868 -161 c-7 -3 -7 -9 2 -20 11
-13 11 -14 -2 -10 -16 5 -17 52 -3 143 8 49 8 49 11 -30 2 -51 -1 -81 -8 -83z
m1858 129 c5 -15 7 -34 2 -40 -4 -8 -11 3 -18 28 -11 46 1 56 16 12z m-1974 4
c3 -8 3 -22 -1 -30 -5 -13 -8 -13 -20 5 -14 19 -10 40 7 40 4 0 10 -7 14 -15z
m3010 -18 c-3 -8 4 -18 15 -23 13 -6 18 -14 13 -22 -6 -9 -14 -7 -31 9 -17 16
-20 24 -10 35 14 18 20 18 13 1z m-1416 -9 c17 -17 15 -28 -7 -28 -11 0 -21
-4 -23 -8 -1 -5 -20 -12 -40 -15 -35 -5 -38 -4 -38 18 0 19 7 27 33 34 45 13
61 13 75 -1z m1052 -20 c0 -30 -15 -52 -29 -44 -6 4 -11 20 -11 37 0 22 5 29
20 29 14 0 20 -7 20 -22z m617 16 c-3 -3 -12 -4 -19 -1 -8 3 -5 6 6 6 11 1 17
-2 13 -5z m-2331 -21 c18 -23 18 -53 0 -53 -21 0 -38 27 -31 50 8 25 14 25 31
3z m734 7 c0 -5 -4 -10 -10 -10 -5 0 -10 5 -10 10 0 6 5 10 10 10 6 0 10 -4
10 -10z m-663 -22 c-3 -8 -6 -5 -6 6 -1 11 2 17 5 13 3 -3 4 -12 1 -19z m-637
-7 c0 -10 7 -21 15 -25 21 -8 18 -28 -8 -52 -24 -23 -73 -29 -84 -11 -12 19
-4 66 14 87 23 26 63 27 63 1z m3013 12 c-7 -2 -21 -2 -30 0 -10 3 -4 5 12 5
17 0 24 -2 18 -5z m78 -30 c28 -17 40 -43 19 -43 -5 0 -10 4 -10 9 0 4 -14 12
-32 17 -34 10 -50 34 -23 34 9 0 30 -8 46 -17z m-316 -13 c-3 -5 -13 -10 -21
-10 -8 0 -14 5 -14 10 0 6 9 10 21 10 11 0 17 -4 14 -10z m425 -5 c0 -8 -4
-15 -10 -15 -5 0 -10 7 -10 15 0 8 5 15 10 15 6 0 10 -7 10 -15z m-2560 -8 c0
-2 -7 -18 -16 -35 -19 -38 -34 -41 -34 -7 0 16 6 25 15 25 8 0 15 5 15 10 0 6
5 10 10 10 6 0 10 -2 10 -3z m-1550 -36 c-5 -11 -10 -30 -10 -43 1 -19 3 -18
16 11 13 31 16 33 32 19 9 -8 33 -15 52 -16 32 -2 60 -23 60 -44 0 -4 -9 -17
-20 -28 -11 -11 -20 -24 -20 -30 0 -17 -20 -11 -27 8 -13 33 -35 46 -74 43
-41 -2 -67 7 -53 18 5 3 17 23 26 44 10 20 20 37 23 37 3 0 1 -9 -5 -19z
m1107 -28 c-3 -10 -5 -2 -5 17 0 19 2 27 5 18 2 -10 2 -26 0 -35z m333 22 c0
-14 -4 -25 -10 -25 -5 0 -10 11 -10 25 0 14 5 25 10 25 6 0 10 -11 10 -25z
m553 18 c-7 -2 -21 -2 -30 0 -10 3 -4 5 12 5 17 0 24 -2 18 -5z m410 -14 c-7
-24 27 -59 57 -59 18 0 19 -3 9 -22 -17 -33 -28 -37 -63 -25 -48 16 -86 46
-86 69 0 11 -10 28 -22 39 -23 18 -23 18 44 19 62 0 66 -1 61 -21z m-133 1 c0
-5 -4 -10 -9 -10 -6 0 -13 5 -16 10 -3 6 1 10 9 10 9 0 16 -4 16 -10z m1450
-5 c10 -13 9 -15 -9 -15 -12 0 -21 6 -21 15 0 8 4 15 9 15 5 0 14 -7 21 -15z
m-822 -40 c-1 -25 -5 -48 -10 -51 -9 -6 -11 80 -1 89 11 11 11 9 11 -38z
m-1230 -13 c2 -18 1 -32 -2 -32 -19 0 -36 16 -36 34 0 48 33 46 38 -2z m85 32
c3 -4 2 -16 -4 -26 -13 -24 -35 -9 -26 16 7 17 19 21 30 10z m197 -4 c0 -5
-11 -10 -25 -10 -14 0 -25 5 -25 10 0 6 11 10 25 10 14 0 25 -4 25 -10z m240
0 c0 -5 -11 -10 -25 -10 -14 0 -25 5 -25 10 0 6 11 10 25 10 14 0 25 -4 25
-10z m1658 -23 c2 -11 -3 -17 -17 -17 -23 0 -35 15 -26 31 10 15 39 6 43 -14z
m-2358 7 c0 -3 -7 -12 -15 -20 -19 -19 -41 -8 -24 12 11 14 39 20 39 8z m-54
-42 c1 -12 7 -28 14 -37 23 -27 -20 -18 -46 11 -36 38 -31 70 9 55 13 -5 22
-18 23 -29z m140 -18 c-3 -8 -10 -14 -16 -14 -14 0 -12 57 3 63 13 4 22 -26
13 -49z m-860 35 c10 -17 -23 -46 -38 -31 -8 8 -8 15 2 27 15 18 26 19 36 4z
m291 5 c-3 -3 -12 -4 -19 -1 -8 3 -5 6 6 6 11 1 17 -2 13 -5z m102 -26 c-1
-22 -3 -26 -6 -13 -3 11 -10 26 -15 33 -8 9 -6 12 6 12 12 0 16 -9 15 -32z
m1511 22 c0 -5 -4 -10 -10 -10 -5 0 -10 5 -10 10 0 6 5 10 10 10 6 0 10 -4 10
-10z m500 -11 c0 -11 -4 -17 -10 -14 -5 3 -10 13 -10 21 0 8 5 14 10 14 6 0
10 -9 10 -21z m-133 -41 c-3 -8 -6 -5 -6 6 -1 11 2 17 5 13 3 -3 4 -12 1 -19z
m-1277 -14 c0 -14 -4 -23 -10 -19 -5 3 -10 15 -10 26 0 10 5 19 10 19 6 0 10
-12 10 -26z m890 -8 c0 -2 -3 -11 -6 -20 -9 -23 -24 -20 -24 4 0 11 7 20 15
20 8 0 15 -2 15 -4z m419 -68 c1 -5 -10 -8 -24 -8 -25 0 -33 14 -15 25 6 3 10
18 11 33 0 26 1 25 14 -8 7 -19 14 -38 14 -42z m-2145 47 c19 -4 37 -13 40
-21 3 -8 12 -14 21 -14 8 0 15 -4 15 -10 0 -5 -5 -10 -11 -10 -8 0 -8 -5 1
-15 16 -19 -9 -30 -48 -21 -29 7 -60 13 -79 15 -14 1 -17 48 -7 76 4 9 12 14
20 11 7 -3 28 -8 48 -11z m774 -12 c5 -16 13 -36 17 -45 5 -14 2 -18 -13 -18
-12 0 -24 -4 -27 -10 -3 -5 -11 -10 -17 -10 -6 0 -3 8 6 19 16 18 16 19 -11
26 -32 8 -33 7 -32 -1 0 -4 -5 -11 -13 -15 -11 -8 -11 -10 0 -18 11 -7 11 -9
-1 -14 -20 -8 -38 6 -27 22 4 8 4 25 -1 38 -6 18 -5 23 6 23 8 0 15 -6 15 -12
0 -7 8 -1 18 15 11 18 25 27 43 27 20 0 30 -7 37 -27z m-279 -47 c1 -15 -2
-16 -14 -6 -16 13 -20 42 -8 54 8 8 21 -20 22 -48z m1140 38 c2 -2 -14 -4 -37
-4 -23 0 -45 0 -49 -1 -4 0 -9 5 -11 11 -3 8 10 10 44 4 27 -3 51 -8 53 -10z
m141 -10 c0 -14 -4 -23 -10 -19 -5 3 -10 15 -10 26 0 10 5 19 10 19 6 0 10
-12 10 -26z m1170 -14 c0 -4 -7 -13 -15 -20 -19 -16 -41 1 -32 24 6 15 47 11
47 -4z m88 -2 c18 -15 15 -28 -6 -28 -10 0 -24 -6 -31 -12 -11 -11 -12 -8 -7
16 5 19 3 32 -6 38 -8 6 -4 7 12 2 14 -3 31 -11 38 -16z m-1353 2 c-3 -5 -12
-10 -18 -10 -7 0 -6 4 3 10 19 12 23 12 15 0z m542 -26 c-3 -3 -12 -4 -19 -1
-8 3 -5 6 6 6 11 1 17 -2 13 -5z m-3151 -31 c-10 -10 -19 5 -10 18 6 11 8 11
12 0 2 -7 1 -15 -2 -18z m209 17 c-3 -5 -15 -10 -26 -10 -10 0 -19 5 -19 10 0
6 12 10 26 10 14 0 23 -4 19 -10z m2380 0 c3 -5 -1 -10 -9 -10 -9 0 -16 5 -16
10 0 6 4 10 9 10 6 0 13 -4 16 -10z m59 -6 c8 -21 1 -28 -18 -21 -9 4 -13 13
-10 22 8 20 20 19 28 -1z m540 -4 c4 -5 -28 -10 -73 -12 -77 -3 -81 -2 -62 13
15 12 33 15 73 11 29 -2 57 -8 62 -12z m41 0 c3 -6 -1 -7 -9 -4 -18 7 -21 14
-7 14 6 0 13 -4 16 -10z"/>
<path d="M2390 2335 c0 -8 4 -15 10 -15 5 0 7 7 4 15 -4 8 -8 15 -10 15 -2 0
-4 -7 -4 -15z"/>
<path d="M2261 1824 c0 -11 3 -14 6 -6 3 7 2 16 -1 19 -3 4 -6 -2 -5 -13z"/>
<path d="M2872 1300 c0 -14 2 -19 5 -12 2 6 2 18 0 25 -3 6 -5 1 -5 -13z"/>
<path d="M442 607 c-14 -17 1 -39 23 -35 13 2 21 -5 25 -21 3 -14 11 -26 18
-29 15 -5 16 34 1 43 -5 4 -14 18 -19 31 -10 26 -32 31 -48 11z"/>
<path d="M689 618 c0 -2 -1 -54 -2 -116 -2 -128 -3 -127 81 -120 54 4 59 22 7
26 -48 4 -65 17 -65 47 0 28 16 41 54 43 45 3 45 12 0 12 -35 0 -41 4 -51 30
-10 26 -9 32 7 40 10 6 35 10 54 10 25 0 36 4 36 15 0 12 -13 15 -60 15 -33 0
-60 -1 -61 -2z"/>
<path d="M986 613 c-12 -12 -6 -43 9 -43 8 0 15 9 15 19 0 21 -13 34 -24 24z"/>
<path d="M1117 614 c-11 -11 -8 -44 3 -44 15 0 24 30 13 41 -5 5 -12 6 -16 3z"/>
<path d="M1203 594 c-13 -14 -23 -33 -23 -41 0 -25 60 -73 91 -73 18 0 32 -7
39 -20 12 -22 40 -27 40 -7 0 7 -13 25 -28 40 -21 21 -38 27 -70 27 -40 0 -42
2 -42 29 0 32 17 41 83 41 58 0 42 24 -19 28 -42 2 -52 -1 -71 -24z"/>
<path d="M1570 595 c0 -14 4 -25 9 -25 5 0 13 -9 16 -20 3 -11 13 -20 22 -20
12 0 14 7 9 32 -11 57 -56 83 -56 33z"/>
<path d="M1752 595 c-12 -14 -22 -33 -22 -43 0 -10 -5 -23 -11 -29 -6 -6 -9
-19 -7 -29 2 -11 11 0 28 34 28 58 44 66 115 60 36 -2 45 0 43 12 -2 11 -19
16 -63 18 -54 3 -63 0 -83 -23z"/>
<path d="M1977 613 c-4 -3 -7 -22 -6 -42 0 -32 1 -34 11 -15 10 22 46 34 99
34 19 0 29 5 29 15 0 12 -14 15 -63 15 -35 0 -67 -3 -70 -7z"/>
<path d="M2159 613 c-1 -17 -1 -209 0 -221 1 -7 6 -10 11 -7 6 3 10 39 10 80
0 52 4 78 15 89 18 18 19 38 3 54 -13 13 -38 16 -39 5z"/>
<path d="M2433 598 c-61 -69 -68 -111 -27 -170 30 -43 50 -51 115 -46 31 2 44
7 44 18 0 12 -11 14 -54 11 -48 -3 -56 0 -77 25 -34 38 -33 102 1 134 20 19
32 22 75 18 33 -3 53 -1 60 7 14 17 -9 25 -69 25 -37 0 -52 -5 -68 -22z"/>
<path d="M2728 595 c-18 -24 -24 -55 -10 -55 7 0 40 53 42 67 3 17 -17 10 -32
-12z"/>
<path d="M2960 610 c0 -5 -13 -24 -28 -42 -38 -43 -36 -100 3 -152 25 -32 32
-36 74 -36 51 0 76 18 99 73 15 34 16 77 2 77 -5 0 -10 -16 -10 -35 0 -18 -6
-38 -13 -42 -8 -4 -16 -16 -20 -25 -9 -26 -77 -24 -108 3 -34 29 -34 113 0
141 34 27 111 23 111 -7 0 -7 7 -15 15 -19 21 -8 19 17 -5 47 -16 21 -29 25
-70 25 -27 1 -50 -3 -50 -8z"/>
<path d="M3173 608 c-5 -7 -8 -53 -7 -103 3 -120 3 -115 14 -115 6 0 10 17 10
38 0 47 14 62 57 62 18 0 33 5 33 10 0 6 -18 10 -40 10 -34 0 -41 4 -46 25 -8
33 12 56 45 54 46 -3 61 1 61 16 0 19 -113 22 -127 3z"/>
<path d="M3469 617 c-1 -1 -3 -28 -4 -59 l-1 -57 28 28 c26 25 28 31 17 54
-10 21 -35 43 -40 34z"/>
<path d="M3696 612 c-3 -5 1 -18 9 -28 11 -15 17 -17 32 -8 10 6 18 17 18 25
0 16 -50 25 -59 11z"/>
<path d="M3846 590 c-24 -26 -28 -39 -28 -85 1 -84 1 -85 15 -85 7 0 18 -9 25
-20 11 -18 21 -21 75 -18 l62 3 6 36 c7 43 -5 79 -25 79 -12 0 -13 -5 -4 -30
17 -51 6 -63 -57 -58 -30 3 -58 8 -62 12 -11 10 -10 142 0 153 5 4 40 8 78 8
57 0 69 3 67 15 -2 11 -19 16 -63 18 -56 2 -62 0 -89 -28z"/>
<path d="M4062 603 c-5 -10 -7 -49 -4 -86 4 -65 5 -67 18 -41 10 19 11 30 3
40 -6 7 -9 23 -7 36 3 24 30 35 91 37 26 1 37 6 37 16 0 24 -126 21 -138 -2z"/>
<path d="M4254 605 c-10 -25 4 -34 39 -24 17 5 42 9 55 9 21 0 23 -4 20 -37
-3 -33 -7 -38 -30 -41 -35 -4 -35 -9 2 -52 52 -63 60 -70 76 -70 12 0 8 9 -15
32 -34 35 -41 77 -16 98 22 18 18 48 -7 76 -18 18 -34 24 -71 24 -33 0 -49 -5
-53 -15z"/>
<path d="M4474 609 c-4 -7 1 -18 11 -25 15 -11 18 -26 16 -81 -2 -43 -8 -74
-17 -85 -14 -14 -14 -17 2 -26 17 -10 54 -5 54 7 0 4 -5 12 -11 18 -10 10 -8
122 2 178 3 15 -2 21 -23 23 -14 2 -29 -2 -34 -9z"/>
<path d="M4664 606 c-3 -8 4 -24 15 -35 12 -12 21 -25 21 -31 0 -5 5 -10 10
-10 14 0 12 64 -2 78 -16 16 -37 15 -44 -2z"/>
<path d="M850 601 c0 -5 6 -11 14 -14 8 -3 15 -26 18 -57 7 -75 28 -90 28 -19
-1 38 -6 61 -19 77 -19 22 -41 29 -41 13z"/>
<path d="M3590 548 c0 -41 -5 -71 -15 -84 -20 -27 -18 -61 4 -74 11 -5 22 -7
24 -3 3 5 6 55 8 112 3 77 1 105 -8 108 -10 4 -13 -12 -13 -59z"/>
<path d="M590 575 c0 -14 5 -25 10 -25 6 0 10 11 10 25 0 14 -4 25 -10 25 -5
0 -10 -11 -10 -25z"/>
<path d="M2610 580 c0 -10 6 -23 14 -27 17 -10 58 -102 50 -114 -3 -5 -2 -14
2 -20 11 -19 24 12 24 58 0 35 -5 46 -26 60 -14 9 -30 27 -35 40 -10 28 -29
30 -29 3z"/>
<path d="M1548 554 c-5 -4 -8 -16 -8 -28 0 -11 -9 -39 -21 -63 -12 -24 -18
-51 -15 -60 8 -19 22 -7 28 22 2 16 12 21 50 23 42 3 48 0 64 -27 10 -17 24
-31 31 -31 18 0 16 19 -2 26 -9 4 -15 19 -15 38 0 17 -4 38 -10 46 -7 12 -12
12 -29 -4 -31 -28 -55 -17 -61 28 -3 21 -8 34 -12 30z"/>
<path d="M3720 504 c0 -34 4 -53 10 -49 6 3 10 28 10 56 0 27 -4 49 -10 49 -5
0 -10 -25 -10 -56z"/>
<path d="M4250 533 c0 -15 5 -35 10 -43 7 -11 10 -6 10 22 0 20 -4 40 -10 43
-6 4 -10 -6 -10 -22z"/>
<path d="M2296 541 c-4 -7 -5 -15 -2 -18 9 -9 19 4 14 18 -4 11 -6 11 -12 0z"/>
<path d="M4635 523 c-3 -16 -12 -41 -20 -56 -17 -33 -19 -63 -6 -71 5 -4 12 7
16 24 6 28 9 30 53 30 51 -1 82 -17 82 -44 0 -9 5 -16 10 -16 6 0 10 6 10 14
0 8 -4 18 -10 21 -5 3 -10 18 -10 33 0 15 -4 34 -10 42 -7 12 -12 12 -29 -4
-29 -27 -55 -17 -59 22 -4 39 -20 42 -27 5z"/>
<path d="M1011 523 c1 -10 4 -29 9 -43 6 -21 8 -22 14 -8 4 9 6 27 4 39 -4 27
-28 38 -27 12z"/>
<path d="M1085 528 c-3 -9 -5 -31 -3 -50 l4 -33 13 27 c11 21 11 34 4 50 -9
20 -12 21 -18 6z"/>
<path d="M2229 532 c-6 -17 58 -152 71 -152 16 0 24 30 11 43 -6 6 -11 21 -11
34 0 21 -9 27 -36 24 -6 -1 -15 13 -21 31 -5 18 -11 27 -14 20z"/>
<path d="M599 518 c-1 -2 -3 -16 -5 -32 -1 -15 -10 -36 -18 -45 -24 -27 -20
-53 7 -49 20 3 22 9 24 66 1 51 -2 73 -8 60z"/>
<path d="M950 479 c0 -24 4 -38 10 -34 6 3 10 22 10 41 0 19 -4 34 -10 34 -5
0 -10 -18 -10 -41z"/>
<path d="M1974 511 c-9 -10 -3 -108 8 -119 15 -15 114 -16 124 -1 10 17 -17
29 -51 23 -44 -8 -76 21 -68 59 5 25 10 28 32 25 14 -3 40 -2 56 2 24 5 17 7
-33 11 -35 2 -66 2 -68 0z"/>
<path d="M3520 513 c0 -5 4 -15 10 -23 11 -18 25 -7 17 15 -6 15 -27 21 -27 8z"/>
<path d="M4130 500 c36 -12 60 -12 60 0 0 6 -19 10 -42 9 -37 -1 -39 -2 -18
-9z"/>
<path d="M436 484 c-9 -24 -7 -62 4 -69 6 -4 10 12 10 39 0 48 -4 56 -14 30z"/>
<path d="M524 486 c-7 -19 3 -36 22 -36 10 0 14 8 12 22 -4 26 -26 36 -34 14z"/>
<path d="M1888 494 c-8 -7 3 -54 13 -54 12 0 12 47 0 54 -4 3 -10 3 -13 0z"/>
<path d="M4250 436 c0 -20 5 -36 10 -36 6 0 10 13 10 29 0 17 -4 33 -10 36 -6
4 -10 -8 -10 -29z"/>
<path d="M1730 440 c0 -37 39 -60 99 -60 63 0 87 11 78 34 -5 13 -12 14 -32 6
-15 -6 -44 -10 -66 -10 -33 0 -41 4 -49 25 -11 30 -30 33 -30 5z"/>
<path d="M3460 425 c0 -22 4 -34 10 -30 6 3 10 17 10 30 0 13 -4 27 -10 30 -6
4 -10 -8 -10 -30z"/>
<path d="M913 414 c-7 -18 11 -39 26 -30 17 11 13 46 -4 46 -9 0 -18 -7 -22
-16z"/>
<path d="M1043 414 c-7 -19 11 -39 26 -30 16 10 13 33 -4 40 -9 3 -18 -1 -22
-10z"/>
<path d="M3700 415 c-6 -8 -9 -19 -5 -25 8 -13 52 -13 60 0 8 13 -13 40 -30
40 -7 0 -18 -7 -25 -15z"/>
<path d="M4060 412 c0 -25 18 -32 86 -32 41 0 54 4 54 15 0 8 -3 15 -7 16 -5
0 -28 1 -53 3 -25 2 -53 6 -62 11 -14 5 -18 2 -18 -13z"/>
<path d="M1183 408 c-11 -19 12 -28 67 -28 46 0 61 4 69 18 8 15 3 17 -61 17
-38 0 -72 -3 -75 -7z"/>
</g>
</svg>
